g block
v 0.008189132 -0.008189122 0.0006739957
v 0.009069199 -0.009069188 0.0006739957
v 0.007125625 -0.01066424 0.0006739957
v 0.006434162 -0.009629392 0.0006739957
v 0.0096294 -0.00643415 0.0006739957
v 0.01066425 -0.007125612 0.0006739957
v 0.01069961 -0.004431916 0.0006739957
v 0.01184948 -0.004908203 0.0006739957
v 0.01135865 -0.002259366 0.0006739957
v 0.01257933 -0.002502174 0.0006739957
v 0.01158118 1.072575E-08 0.0006739957
v 0.01282577 1.156779E-08 0.0006739957
v 0.01135864 0.002259387 0.0006739957
v 0.01257933 0.002502197 0.0006739957
v 0.01069961 0.004431935 0.0006739957
v 0.01184947 0.004908224 0.0006739957
v 0.009629387 0.006434167 0.0006739957
v 0.01066423 0.007125631 0.0006739957
v 0.008189117 0.008189137 0.0006739957
v 0.009069181 0.009069203 0.0006739957
v 0.006434143 0.009629404 0.0006739957
v 0.007125604 0.01066425 0.0006739957
vn 0 0 1
vn 0 0 1
vn 0 0 1
vn 0 0 1
vn 0 0 1
vn 0 0 1
vn 0 0 1
vn 0 0 1
vn 0 0 1
vn 0 0 1
vn 0 0 1
vn 0 0 1
vn 0 0 1
vn 0 0 1
vn 0 0 1
vn 0 0 1
vn 0 0 1
vn 0 0 1
vn 0 0 1
vn 0 0 1
vn 0 0 1
vn 0 0 1
g block_0
f 3/3/3 2/2/2 1/1/1
f 4/4/4 3/3/3 1/1/1
f 1/1/1 2/2/2 5/5/5
f 2/2/2 6/6/6 5/5/5
f 5/5/5 6/6/6 7/7/7
f 6/6/6 8/8/8 7/7/7
f 7/7/7 8/8/8 9/9/9
f 8/8/8 10/10/10 9/9/9
f 9/9/9 10/10/10 11/11/11
f 10/10/10 12/12/12 11/11/11
f 11/11/11 12/12/12 13/13/13
f 12/12/12 14/14/14 13/13/13
f 13/13/13 14/14/14 15/15/15
f 14/14/14 16/16/16 15/15/15
f 15/15/15 16/16/16 17/17/17
f 16/16/16 18/18/18 17/17/17
f 17/17/17 18/18/18 19/19/19
f 18/18/18 20/20/20 19/19/19
f 19/19/19 20/20/20 21/21/21
f 20/20/20 22/22/22 21/21/21
