g Cube.002
v -0.01 -0.01 -0.006762369
v -0.01 -0.00272043 -0.003305082
v -0.01 -0.000523621 0.004389029
v -0.01 -0.01 0.004792954
v -0.01 -0.00272043 -0.003305082
v 0.01 -0.00272043 -0.003305082
v 0.01 -0.0005236209 0.004389029
v -0.01 -0.000523621 0.004389029
v 0.01 -0.01 -0.006762369
v 0.01 -0.01 0.004792954
v 0.01 -0.0005236209 0.004389029
v 0.01 -0.00272043 -0.003305082
v -0.01 -0.01 -0.006762369
v 0.01 -0.01 -0.006762369
v 0.01 -0.00272043 -0.003305082
v -0.01 -0.00272043 -0.003305082
v -0.01 -0.000523621 0.004389029
v 0.01 -0.0005236209 0.004389029
v 0.01 -0.01 0.004792954
v -0.01 -0.01 0.004792954
v -0.01 -0.01 0.004792954
v 0.01 -0.01 0.004792954
v 0.01 -0.01 -0.006762369
v -0.01 -0.01 -0.006762369
vn -1 0 0
vn -1 0 0
vn -1 0 0
vn -1 0 0
vn 0 0.9615738 -0.2745468
vn 0 0.9615738 -0.2745468
vn 0 0.9615738 -0.2745468
vn 0 0.9615738 -0.2745468
vn 1 0 0
vn 1 0 0
vn 1 0 0
vn 1 0 0
vn 0 0.4290052 -0.903302
vn 0 0.4290052 -0.903302
vn 0 0.4290052 -0.903302
vn 0 0.4290052 -0.903302
vn 0 0.04258576 0.9990928
vn 0 0.04258576 0.9990928
vn 0 0.04258576 0.9990928
vn 0 0.04258576 0.9990928
vn 0 -1 0
vn 0 -1 0
vn 0 -1 0
vn 0 -1 0
g Cube.002_0
f 3/3/3 2/2/2 1/1/1
f 4/4/4 3/3/3 1/1/1
f 7/7/7 6/6/6 5/5/5
f 8/8/8 7/7/7 5/5/5
f 11/11/11 10/10/10 9/9/9
f 12/12/12 11/11/11 9/9/9
f 15/15/15 14/14/14 13/13/13
f 16/16/16 15/15/15 13/13/13
f 19/19/19 18/18/18 17/17/17
f 20/20/20 19/19/19 17/17/17
f 23/23/23 22/22/22 21/21/21
f 24/24/24 23/23/23 21/21/21
