g Cube.035
v 0.007 -0.09506322 -0.01000006
v 0.007 -0.1107479 -0.01000006
v 0.006999989 -0.1087341 -0.003268986
v 0.006999987 -0.1056033 -0.003314936
v 0.006999987 -0.09794921 -0.003314936
v -0.006999999 -0.1107479 -0.01000006
v 0.007 -0.1107479 -0.01000006
v 0.007 -0.09506322 -0.01000006
v -0.006999999 -0.09506322 -0.01000006
v -0.007000013 -0.1056033 -0.003314936
v 0.006999987 -0.1056033 -0.003314936
v 0.006999989 -0.1087341 -0.003268986
v -0.00700001 -0.1087341 -0.003268986
v -0.007000013 -0.09794921 -0.003314936
v 0.006999987 -0.09794921 -0.003314936
v -0.006999999 -0.09506322 -0.01000006
v 0.007 -0.09506322 -0.01000006
v 0.006999987 -0.09794921 -0.003314936
v -0.007000013 -0.09794921 -0.003314936
v -0.00700001 -0.1087341 -0.003268986
v 0.006999989 -0.1087341 -0.003268986
v 0.007 -0.1107479 -0.01000006
v -0.006999999 -0.1107479 -0.01000006
v -0.00700001 -0.1087341 -0.003268986
v -0.006999999 -0.1107479 -0.01000006
v -0.006999999 -0.09506322 -0.01000006
v -0.007000013 -0.1056033 -0.003314936
v -0.007000013 -0.09794921 -0.003314936
vn 1 0 1.978725E-06
vn 1 0 1.978725E-06
vn 1 0 1.978725E-06
vn 1 0 1.978725E-06
vn 1 0 1.978725E-06
vn 0 0 -1
vn 0 0 -1
vn 0 0 -1
vn 0 0 -1
vn 0 0.01467554 0.9998924
vn 0 0.01467554 0.9998924
vn 0 0.01467554 0.9998924
vn 0 0.01467554 0.9998924
vn 0 0 1
vn 0 0 1
vn 0 0.9181001 0.3963486
vn 0 0.9181001 0.3963486
vn 0 0.9181001 0.3963486
vn 0 0.9181001 0.3963486
vn 0 -0.9580423 0.2866267
vn 0 -0.9580423 0.2866267
vn 0 -0.9580423 0.2866267
vn 0 -0.9580423 0.2866267
vn -1 -1.00392E-07 -1.978725E-06
vn -1 -1.00392E-07 -1.978725E-06
vn -1 -1.00392E-07 -1.978725E-06
vn -1 -1.00392E-07 -1.978725E-06
vn -1 -1.00392E-07 -1.978725E-06
g Cube.035_0
f 3/3/3 2/2/2 1/1/1
f 1/1/1 4/4/4 3/3/3
f 1/1/1 5/5/5 4/4/4
f 8/8/8 7/7/7 6/6/6
f 9/9/9 8/8/8 6/6/6
f 12/12/12 11/11/11 10/10/10
f 13/13/13 12/12/12 10/10/10
f 10/10/10 11/11/11 14/14/14
f 11/11/11 15/15/15 14/14/14
f 18/18/18 17/17/17 16/16/16
f 19/19/19 18/18/18 16/16/16
f 22/22/22 21/21/21 20/20/20
f 23/23/23 22/22/22 20/20/20
f 26/26/26 25/25/25 24/24/24
f 24/24/24 27/27/27 26/26/26
f 27/27/27 28/28/28 26/26/26
