g Cube.036
v 0.007 0.09249055 -0.009999979
v 0.007 0.08900224 -0.009999979
v 0.00700001 0.08274323 0.0002771759
v 0.007 0.09693892 0.002172239
v -0.007 0.08900224 -0.009999979
v 0.007 0.08900224 -0.009999979
v 0.007 0.09249055 -0.009999979
v -0.007 0.09249055 -0.009999979
v -0.007 0.09693892 0.002172239
v 0.007 0.09693892 0.002172239
v 0.00700001 0.08274323 0.0002771759
v -0.00699999 0.08274323 0.0002771759
v -0.007 0.09249055 -0.009999979
v 0.007 0.09249055 -0.009999979
v 0.007 0.09693892 0.002172239
v -0.007 0.09693892 0.002172239
v -0.00699999 0.08274323 0.0002771759
v 0.00700001 0.08274323 0.0002771759
v 0.007 0.08900224 -0.009999979
v -0.007 0.08900224 -0.009999979
v -0.007 0.09249055 -0.009999979
v -0.007 0.09693892 0.002172239
v -0.00699999 0.08274323 0.0002771759
v -0.007 0.08900224 -0.009999979
vn 1 5.954122E-07 -4.016743E-07
vn 1 5.954122E-07 -4.016743E-07
vn 1 5.954122E-07 -4.016743E-07
vn 1 5.954122E-07 -4.016743E-07
vn 0 0 -1
vn 0 0 -1
vn 0 0 -1
vn 0 0 -1
vn 0 -0.1323218 0.9912068
vn 0 -0.1323218 0.9912068
vn 0 -0.1323218 0.9912068
vn 0 -0.1323218 0.9912068
vn 0 0.9392444 -0.3432491
vn 0 0.9392444 -0.3432491
vn 0 0.9392444 -0.3432491
vn 0 0.9392444 -0.3432491
vn 0 -0.8540748 -0.5201502
vn 0 -0.8540748 -0.5201502
vn 0 -0.8540748 -0.5201502
vn 0 -0.8540748 -0.5201502
vn -1 -6.698389E-07 4.016743E-07
vn -1 -6.698389E-07 4.016743E-07
vn -1 -6.698389E-07 4.016743E-07
vn -1 -6.698389E-07 4.016743E-07
g Cube.036_0
f 3/3/3 2/2/2 1/1/1
f 4/4/4 3/3/3 1/1/1
f 7/7/7 6/6/6 5/5/5
f 8/8/8 7/7/7 5/5/5
f 11/11/11 10/10/10 9/9/9
f 12/12/12 11/11/11 9/9/9
f 15/15/15 14/14/14 13/13/13
f 16/16/16 15/15/15 13/13/13
f 19/19/19 18/18/18 17/17/17
f 20/20/20 19/19/19 17/17/17
f 23/23/23 22/22/22 21/21/21
f 24/24/24 23/23/23 21/21/21
