g Cube.005
v -0.007 0.01 0.00767353
v 0.007 0.01 0.00767353
v 0.007 0.006696927 0.007394523
v -0.007 0.006696927 0.007394523
v -0.007 0.002589975 -0.003535267
v 0.007 0.002589975 -0.003535267
v 0.007 -0.00195327 -0.01562616
v -0.007 -0.00195327 -0.01562616
v -0.007 0.006696927 0.007394523
v 0.007 0.006696927 0.007394523
v 0.007 0.0004257421 -0.02212011
v 0.007 -0.00195327 -0.01562616
v 0.007 0.002589975 -0.003535267
v 0.007 0.01 -0.01732304
v 0.007 0.006696927 0.007394523
v 0.007 0.01 0.00767353
v -0.007 0.0004257421 -0.02212011
v 0.007 0.0004257421 -0.02212011
v 0.007 0.01 -0.01732304
v -0.007 0.01 -0.01732304
v -0.007 0.002589975 -0.003535267
v -0.007 -0.00195327 -0.01562616
v -0.007 0.0004257421 -0.02212011
v -0.007 0.01 -0.01732304
v -0.007 0.006696927 0.007394523
v -0.007 0.01 0.00767353
v -0.007 -0.00195327 -0.01562616
v 0.007 -0.00195327 -0.01562616
v 0.007 0.0004257421 -0.02212011
v -0.007 0.0004257421 -0.02212011
v -0.007 0.01 -0.01732304
v 0.007 0.01 -0.01732304
v 0.007 0.01 0.00767353
v -0.007 0.01 0.00767353
vn 0 -0.08416919 0.9964515
vn 0 -0.08416919 0.9964515
vn 0 -0.08416919 0.9964515
vn 0 -0.08416919 0.9964515
vn 0 -0.9360958 0.3517451
vn 0 -0.9360958 0.3517451
vn 0 -0.9360958 0.3517451
vn 0 -0.9360958 0.3517451
vn 0 -0.9360958 0.3517451
vn 0 -0.9360958 0.3517451
vn 1 0 0
vn 1 0 0
vn 1 0 0
vn 1 0 0
vn 1 0 0
vn 1 0 0
vn 0 0.4479563 -0.8940554
vn 0 0.4479563 -0.8940554
vn 0 0.4479563 -0.8940554
vn 0 0.4479563 -0.8940554
vn -1 0 0
vn -1 0 0
vn -1 0 0
vn -1 0 0
vn -1 0 0
vn -1 0 0
vn 0 -0.9389744 -0.3439868
vn 0 -0.9389744 -0.3439868
vn 0 -0.9389744 -0.3439868
vn 0 -0.9389744 -0.3439868
vn 0 1 0
vn 0 1 0
vn 0 1 0
vn 0 1 0
g Cube.005_0
f 3/3/3 2/2/2 1/1/1
f 4/4/4 3/3/3 1/1/1
f 7/7/7 6/6/6 5/5/5
f 8/8/8 7/7/7 5/5/5
f 5/5/5 6/6/6 9/9/9
f 6/6/6 10/10/10 9/9/9
f 13/13/13 12/12/12 11/11/11
f 11/11/11 14/14/14 13/13/13
f 14/14/14 15/15/15 13/13/13
f 14/14/14 16/16/16 15/15/15
f 19/19/19 18/18/18 17/17/17
f 20/20/20 19/19/19 17/17/17
f 23/23/23 22/22/22 21/21/21
f 21/21/21 24/24/24 23/23/23
f 21/21/21 25/25/25 24/24/24
f 25/25/25 26/26/26 24/24/24
f 29/29/29 28/28/28 27/27/27
f 30/30/30 29/29/29 27/27/27
f 33/33/33 32/32/32 31/31/31
f 34/34/34 33/33/33 31/31/31
