g Cube.013
v -0.007000013 0.06283576 0.0007434129
v -0.00700004 0.0586973 0.004303834
v -0.006999996 0.04671448 0.002932396
v -0.006999994 0.04714656 -0.003368754
v 0.006999987 0.06283576 0.0007434129
v 0.007000006 0.04714656 -0.003368754
v 0.007000004 0.04671448 0.002932396
v 0.00699996 0.0586973 0.004303834
v -0.006999994 0.04714656 -0.003368754
v 0.007000006 0.04714656 -0.003368754
v 0.006999987 0.06283576 0.0007434129
v -0.007000013 0.06283576 0.0007434129
v -0.00700004 0.0586973 0.004303834
v 0.00699996 0.0586973 0.004303834
v 0.007000004 0.04671448 0.002932396
v -0.006999996 0.04671448 0.002932396
v -0.006999996 0.04671448 0.002932396
v 0.007000004 0.04671448 0.002932396
v 0.007000006 0.04714656 -0.003368754
v -0.006999994 0.04714656 -0.003368754
v -0.007000013 0.06283576 0.0007434129
v 0.006999987 0.06283576 0.0007434129
v 0.00699996 0.0586973 0.004303834
v -0.00700004 0.0586973 0.004303834
vn -1 -1.60038E-06 -3.626324E-06
vn -1 -1.60038E-06 -3.626324E-06
vn -1 -1.60038E-06 -3.626324E-06
vn -1 -1.60038E-06 -3.626324E-06
vn 1 1.56037E-06 3.626325E-06
vn 1 1.56037E-06 3.626325E-06
vn 1 1.56037E-06 3.626325E-06
vn 1 1.56037E-06 3.626325E-06
vn 0 0.2535377 -0.9673255
vn 0 0.2535377 -0.9673255
vn 0 0.2535377 -0.9673255
vn 0 0.2535377 -0.9673255
vn 0 -0.1137081 0.9935142
vn 0 -0.1137081 0.9935142
vn 0 -0.1137081 0.9935142
vn 0 -0.1137081 0.9935142
vn 0 -0.9976573 -0.06841043
vn 0 -0.9976573 -0.06841043
vn 0 -0.9976573 -0.06841043
vn 0 -0.9976573 -0.06841043
vn 0 0.6521807 0.7580635
vn 0 0.6521807 0.7580635
vn 0 0.6521807 0.7580635
vn 0 0.6521807 0.7580635
g Cube.013_0
f 3/3/3 2/2/2 1/1/1
f 4/4/4 3/3/3 1/1/1
f 7/7/7 6/6/6 5/5/5
f 8/8/8 7/7/7 5/5/5
f 11/11/11 10/10/10 9/9/9
f 12/12/12 11/11/11 9/9/9
f 15/15/15 14/14/14 13/13/13
f 16/16/16 15/15/15 13/13/13
f 19/19/19 18/18/18 17/17/17
f 20/20/20 19/19/19 17/17/17
f 23/23/23 22/22/22 21/21/21
f 24/24/24 23/23/23 21/21/21
