g Cube.034
v -0.006999999 -0.1107479 -0.01000003
v 0.007 -0.1107479 -0.01000003
v 0.00699999 -0.1087341 -0.003268955
v -0.00700001 -0.1087341 -0.003268955
v -0.006999999 -0.1177522 -0.01000003
v 0.007 -0.1177522 -0.01000003
v 0.007 -0.1107479 -0.01000003
v -0.006999999 -0.1107479 -0.01000003
v -0.006999999 -0.123349 -0.003054445
v 0.007 -0.123349 -0.003054445
v 0.007 -0.1177522 -0.01000003
v -0.006999999 -0.1177522 -0.01000003
v 0.007 -0.1107479 -0.01000003
v 0.007 -0.1177522 -0.01000003
v 0.007 -0.123349 -0.003054445
v 0.00699999 -0.1087341 -0.003268955
v -0.00700001 -0.1087341 -0.003268955
v 0.00699999 -0.1087341 -0.003268955
v 0.007 -0.123349 -0.003054445
v -0.006999999 -0.123349 -0.003054445
v -0.006999999 -0.1107479 -0.01000003
v -0.00700001 -0.1087341 -0.003268955
v -0.006999999 -0.123349 -0.003054445
v -0.006999999 -0.1177522 -0.01000003
vn 0 0.9580419 -0.2866281
vn 0 0.9580419 -0.2866281
vn 0 0.9580419 -0.2866281
vn 0 0.9580419 -0.2866281
vn 0 0 -1
vn 0 0 -1
vn 0 0 -1
vn 0 0 -1
vn 0 -0.7786582 -0.6274484
vn 0 -0.7786582 -0.6274484
vn 0 -0.7786582 -0.6274484
vn 0 -0.7786582 -0.6274484
vn 1 5.254865E-07 9.168555E-07
vn 1 5.254865E-07 9.168555E-07
vn 1 5.254865E-07 9.168555E-07
vn 1 5.254865E-07 9.168555E-07
vn 0 0.01467583 0.9998924
vn 0 0.01467583 0.9998924
vn 0 0.01467583 0.9998924
vn 0 0.01467583 0.9998924
vn -1 -5.065388E-07 -9.168555E-07
vn -1 -5.065388E-07 -9.168555E-07
vn -1 -5.065388E-07 -9.168555E-07
vn -1 -5.065388E-07 -9.168555E-07
g Cube.034_0
f 3/3/3 2/2/2 1/1/1
f 4/4/4 3/3/3 1/1/1
f 7/7/7 6/6/6 5/5/5
f 8/8/8 7/7/7 5/5/5
f 11/11/11 10/10/10 9/9/9
f 12/12/12 11/11/11 9/9/9
f 15/15/15 14/14/14 13/13/13
f 16/16/16 15/15/15 13/13/13
f 19/19/19 18/18/18 17/17/17
f 20/20/20 19/19/19 17/17/17
f 23/23/23 22/22/22 21/21/21
f 24/24/24 23/23/23 21/21/21
