g Cube.012
v -0.01000002 0.04139177 -0.003936938
v 0.009999981 0.04139177 -0.003936938
v 0.01000004 0.06652141 -0.0009136025
v -0.009999962 0.06652141 -0.0009136025
v -0.009999999 0.02990912 0.009999997
v 0.01 0.02990912 0.009999997
v 0.009999981 0.04139177 -0.003936938
v -0.01000002 0.04139177 -0.003936938
v -0.009999996 0.06733206 0.009999997
v 0.01 0.06733206 0.009999997
v 0.01 0.02990912 0.009999997
v -0.009999999 0.02990912 0.009999997
v 0.01 0.02990912 0.009999997
v 0.01 0.06733206 0.009999997
v 0.01000004 0.06652141 -0.0009136025
v 0.009999981 0.04139177 -0.003936938
v -0.009999999 0.02990912 0.009999997
v -0.01000002 0.04139177 -0.003936938
v -0.009999962 0.06652141 -0.0009136025
v -0.009999996 0.06733206 0.009999997
v -0.009999962 0.06652141 -0.0009136025
v 0.01000004 0.06652141 -0.0009136025
v 0.01 0.06733206 0.009999997
v -0.009999996 0.06733206 0.009999997
vn 0 0.1194481 -0.9928404
vn 0 0.1194481 -0.9928404
vn 0 0.1194481 -0.9928404
vn 0 0.1194481 -0.9928404
vn 0 -0.7717897 -0.6358778
vn 0 -0.7717897 -0.6358778
vn 0 -0.7717897 -0.6358778
vn 0 -0.7717897 -0.6358778
vn 0 0 1
vn 0 0 1
vn 0 0 1
vn 0 0 1
vn 1 -9.917015E-07 1.630527E-07
vn 1 -9.917015E-07 1.630527E-07
vn 1 -9.917015E-07 1.630527E-07
vn 1 -9.917015E-07 1.630527E-07
vn -1 9.766757E-07 -1.630532E-07
vn -1 9.766757E-07 -1.630532E-07
vn -1 9.766757E-07 -1.630532E-07
vn -1 9.766757E-07 -1.630532E-07
vn 0 0.9972526 -0.07407465
vn 0 0.9972526 -0.07407465
vn 0 0.9972526 -0.07407465
vn 0 0.9972526 -0.07407465
g Cube.012_0
f 3/3/3 2/2/2 1/1/1
f 4/4/4 3/3/3 1/1/1
f 7/7/7 6/6/6 5/5/5
f 8/8/8 7/7/7 5/5/5
f 11/11/11 10/10/10 9/9/9
f 12/12/12 11/11/11 9/9/9
f 15/15/15 14/14/14 13/13/13
f 16/16/16 15/15/15 13/13/13
f 19/19/19 18/18/18 17/17/17
f 20/20/20 19/19/19 17/17/17
f 23/23/23 22/22/22 21/21/21
f 24/24/24 23/23/23 21/21/21
