g Cube.005
v -0.007000027 -0.03887384 -6.925106E-05
v 0.006999972 -0.03887384 -6.925106E-05
v 0.007 -0.05134126 0.003162975
v -0.007 -0.05134126 0.003162975
v -0.007 -0.03479274 -0.01000006
v -0.007000027 -0.03887384 -6.925106E-05
v -0.007 -0.05134126 0.003162975
v -0.007 -0.0553217 -0.0009971427
v -0.007 -0.03479274 -0.01000006
v 0.007 -0.03479274 -0.01000006
v 0.006999972 -0.03887384 -6.925106E-05
v -0.007000027 -0.03887384 -6.925106E-05
v -0.007 -0.05134126 0.003162975
v 0.007 -0.05134126 0.003162975
v 0.007 -0.0553217 -0.0009971427
v -0.007 -0.0553217 -0.0009971427
v 0.007 -0.03479274 -0.01000006
v 0.007 -0.0553217 -0.0009971427
v 0.007 -0.05134126 0.003162975
v 0.006999972 -0.03887384 -6.925106E-05
v -0.007 -0.0553217 -0.0009971427
v 0.007 -0.0553217 -0.0009971427
v 0.007 -0.03479274 -0.01000006
v -0.007 -0.03479274 -0.01000006
vn 0 0.2509571 0.9679983
vn 0 0.2509571 0.9679983
vn 0 0.2509571 0.9679983
vn 0 0.2509571 0.9679983
vn -1 -1.51673E-06 -1.956921E-06
vn -1 -1.51673E-06 -1.956921E-06
vn -1 -1.51673E-06 -1.956921E-06
vn -1 -1.51673E-06 -1.956921E-06
vn 0 0.9249421 0.3801082
vn 0 0.9249421 0.3801082
vn 0 0.9249421 0.3801082
vn 0 0.9249421 0.3801082
vn 0 -0.7225378 0.6913314
vn 0 -0.7225378 0.6913314
vn 0 -0.7225378 0.6913314
vn 0 -0.7225378 0.6913314
vn 1 1.542437E-06 1.956921E-06
vn 1 1.542437E-06 1.956921E-06
vn 1 1.542437E-06 1.956921E-06
vn 1 1.542437E-06 1.956921E-06
vn 0 -0.4016234 -0.9158049
vn 0 -0.4016234 -0.9158049
vn 0 -0.4016234 -0.9158049
vn 0 -0.4016234 -0.9158049
g Cube.005_0
f 3/3/3 2/2/2 1/1/1
f 4/4/4 3/3/3 1/1/1
f 7/7/7 6/6/6 5/5/5
f 8/8/8 7/7/7 5/5/5
f 11/11/11 10/10/10 9/9/9
f 12/12/12 11/11/11 9/9/9
f 15/15/15 14/14/14 13/13/13
f 16/16/16 15/15/15 13/13/13
f 19/19/19 18/18/18 17/17/17
f 20/20/20 19/19/19 17/17/17
f 23/23/23 22/22/22 21/21/21
f 24/24/24 23/23/23 21/21/21
