g Cube.004
v -0.009999962 0.06652138 -0.0009136076
v 0.01000004 0.06652138 -0.0009136075
v 0.01 0.08516596 -0.01000001
v -0.01 0.08516596 -0.01000001
v -0.009999996 0.06733203 0.009999991
v -0.009999962 0.06652138 -0.0009136076
v -0.01 0.08516596 -0.01000001
v -0.009999995 0.09462329 0.009999991
v -0.01 0.09354271 -0.01000001
v -0.01 0.09732521 -0.001215891
v -0.01 0.09732521 -0.001215891
v 0.01 0.09732521 -0.001215891
v 0.01 0.09462329 0.009999991
v -0.009999995 0.09462329 0.009999991
v -0.009999995 0.09462329 0.009999991
v 0.01 0.09462329 0.009999991
v 0.01 0.06733203 0.009999991
v -0.009999996 0.06733203 0.009999991
v -0.009999996 0.06733203 0.009999991
v 0.01 0.06733203 0.009999991
v 0.01000004 0.06652138 -0.0009136075
v -0.009999962 0.06652138 -0.0009136076
v -0.01 0.09354271 -0.01000001
v 0.01 0.09354271 -0.01000001
v 0.01 0.09732521 -0.001215891
v -0.01 0.09732521 -0.001215891
v 0.01 0.08516596 -0.01000001
v 0.01000004 0.06652138 -0.0009136075
v 0.01 0.06733203 0.009999991
v 0.01 0.09462329 0.009999991
v 0.01 0.09354271 -0.01000001
v 0.01 0.09732521 -0.001215891
v -0.01 0.08516596 -0.01000001
v 0.01 0.08516596 -0.01000001
v 0.01 0.09354271 -0.01000001
v -0.01 0.09354271 -0.01000001
vn 0 -0.4380921 -0.8989301
vn 0 -0.4380921 -0.8989301
vn 0 -0.4380921 -0.8989301
vn 0 -0.4380921 -0.8989301
vn -1 -7.462893E-07 -4.410418E-07
vn -1 -7.462893E-07 -4.410418E-07
vn -1 -7.462893E-07 -4.410418E-07
vn -1 -7.462893E-07 -4.410418E-07
vn -1 -7.462893E-07 -4.410418E-07
vn -1 -7.462893E-07 -4.410418E-07
vn 0 0.9721881 0.2342018
vn 0 0.9721881 0.2342018
vn 0 0.9721881 0.2342018
vn 0 0.9721881 0.2342018
vn 0 0 1
vn 0 0 1
vn 0 0 1
vn 0 0 1
vn 0 -0.9972526 0.07407465
vn 0 -0.9972526 0.07407465
vn 0 -0.9972526 0.07407465
vn 0 -0.9972526 0.07407465
vn 0 0.9184668 -0.3954981
vn 0 0.9184668 -0.3954981
vn 0 0.9184668 -0.3954981
vn 0 0.9184668 -0.3954981
vn 1 7.944371E-07 4.410419E-07
vn 1 7.944371E-07 4.410419E-07
vn 1 7.944371E-07 4.410419E-07
vn 1 7.944371E-07 4.410419E-07
vn 1 7.944371E-07 4.410419E-07
vn 1 7.944371E-07 4.410419E-07
vn 0 0 -1
vn 0 0 -1
vn 0 0 -1
vn 0 0 -1
g Cube.004_0
f 3/3/3 2/2/2 1/1/1
f 4/4/4 3/3/3 1/1/1
f 7/7/7 6/6/6 5/5/5
f 5/5/5 8/8/8 7/7/7
f 8/8/8 9/9/9 7/7/7
f 8/8/8 10/10/10 9/9/9
f 13/13/13 12/12/12 11/11/11
f 14/14/14 13/13/13 11/11/11
f 17/17/17 16/16/16 15/15/15
f 18/18/18 17/17/17 15/15/15
f 21/21/21 20/20/20 19/19/19
f 22/22/22 21/21/21 19/19/19
f 25/25/25 24/24/24 23/23/23
f 26/26/26 25/25/25 23/23/23
f 29/29/29 28/28/28 27/27/27
f 27/27/27 30/30/30 29/29/29
f 27/27/27 31/31/31 30/30/30
f 31/31/31 32/32/32 30/30/30
f 35/35/35 34/34/34 33/33/33
f 36/36/36 35/35/35 33/33/33
