g Cube.022
v -0.007 0.1137109 0.01
v 0.007 0.1137109 0.01
v 0.007 0.1159472 2.91729E-05
v -0.007 0.1159472 2.91729E-05
v -0.007 0.1159472 2.91729E-05
v 0.007 0.1159472 2.91729E-05
v 0.007 0.1310421 -0.002828212
v -0.006999999 0.1310421 -0.002828212
v -0.006999999 0.1310421 -0.002828212
v 0.007 0.1310421 -0.002828212
v 0.007 0.1315964 0.01
v -0.007 0.1315964 0.01
v 0.007 0.1310421 -0.002828212
v 0.007 0.1159472 2.91729E-05
v 0.007 0.1137109 0.01
v 0.007 0.1315964 0.01
v -0.006999999 0.1310421 -0.002828212
v -0.007 0.1315964 0.01
v -0.007 0.1137109 0.01
v -0.007 0.1159472 2.91729E-05
v -0.007 0.1315964 0.01
v 0.007 0.1315964 0.01
v 0.007 0.1137109 0.01
v -0.007 0.1137109 0.01
vn 0 -0.9757597 -0.2188447
vn 0 -0.9757597 -0.2188447
vn 0 -0.9757597 -0.2188447
vn 0 -0.9757597 -0.2188447
vn 0 -0.1859924 -0.9825512
vn 0 -0.1859924 -0.9825512
vn 0 -0.1859924 -0.9825512
vn 0 -0.1859924 -0.9825512
vn 0 0.9990677 -0.04317088
vn 0 0.9990677 -0.04317088
vn 0 0.9990677 -0.04317088
vn 0 0.9990677 -0.04317088
vn 1 0 0
vn 1 0 0
vn 1 0 0
vn 1 0 0
vn -1 0 0
vn -1 0 0
vn -1 0 0
vn -1 0 0
vn 0 0 1
vn 0 0 1
vn 0 0 1
vn 0 0 1
g Cube.022_0
f 3/3/3 2/2/2 1/1/1
f 4/4/4 3/3/3 1/1/1
f 7/7/7 6/6/6 5/5/5
f 8/8/8 7/7/7 5/5/5
f 11/11/11 10/10/10 9/9/9
f 12/12/12 11/11/11 9/9/9
f 15/15/15 14/14/14 13/13/13
f 16/16/16 15/15/15 13/13/13
f 19/19/19 18/18/18 17/17/17
f 20/20/20 19/19/19 17/17/17
f 23/23/23 22/22/22 21/21/21
f 24/24/24 23/23/23 21/21/21
