g Cube.009
v 0.007 0.08900225 -0.009999958
v 0.007 0.07345809 -0.009999958
v 0.007000013 0.07821015 -0.0003279519
v 0.00700001 0.08274324 0.0002771974
v -0.007 0.08900225 -0.009999958
v -0.00699999 0.08274324 0.0002771974
v -0.006999987 0.07821015 -0.0003279519
v -0.007 0.07345809 -0.009999958
v -0.007 0.08900225 -0.009999958
v 0.007 0.08900225 -0.009999958
v 0.00700001 0.08274324 0.0002771974
v -0.00699999 0.08274324 0.0002771974
v -0.00699999 0.08274324 0.0002771974
v 0.00700001 0.08274324 0.0002771974
v 0.007000013 0.07821015 -0.0003279519
v -0.006999987 0.07821015 -0.0003279519
v -0.006999987 0.07821015 -0.0003279519
v 0.007000013 0.07821015 -0.0003279519
v 0.007 0.07345809 -0.009999958
v -0.007 0.07345809 -0.009999958
v -0.007 0.07345809 -0.009999958
v 0.007 0.07345809 -0.009999958
v 0.007 0.08900225 -0.009999958
v -0.007 0.08900225 -0.009999958
vn 1 1.781741E-07 -1.151417E-06
vn 1 1.781741E-07 -1.151417E-06
vn 1 1.781741E-07 -1.151417E-06
vn 1 1.781741E-07 -1.151417E-06
vn -1 -1.633262E-07 1.151417E-06
vn -1 -1.633262E-07 1.151417E-06
vn -1 -1.633262E-07 1.151417E-06
vn -1 -1.633262E-07 1.151417E-06
vn 0 0.8540748 0.5201502
vn 0 0.8540748 0.5201502
vn 0 0.8540748 0.5201502
vn 0 0.8540748 0.5201502
vn 0 -0.1323221 0.9912068
vn 0 -0.1323221 0.9912068
vn 0 -0.1323221 0.9912068
vn 0 -0.1323221 0.9912068
vn 0 -0.8975213 0.4409712
vn 0 -0.8975213 0.4409712
vn 0 -0.8975213 0.4409712
vn 0 -0.8975213 0.4409712
vn 0 0 -1
vn 0 0 -1
vn 0 0 -1
vn 0 0 -1
g Cube.009_0
f 3/3/3 2/2/2 1/1/1
f 4/4/4 3/3/3 1/1/1
f 7/7/7 6/6/6 5/5/5
f 8/8/8 7/7/7 5/5/5
f 11/11/11 10/10/10 9/9/9
f 12/12/12 11/11/11 9/9/9
f 15/15/15 14/14/14 13/13/13
f 16/16/16 15/15/15 13/13/13
f 19/19/19 18/18/18 17/17/17
f 20/20/20 19/19/19 17/17/17
f 23/23/23 22/22/22 21/21/21
f 24/24/24 23/23/23 21/21/21
