g Cube.005
v -0.009999999 0.01 -0.004031873
v 0.01 0.01 -0.004031873
v 0.01 0.01 0.009587395
v -0.009999999 0.01 0.009587395
v -0.009999999 0.003841746 -0.006533966
v 0.01 0.003841746 -0.006533966
v 0.01 0.01 -0.004031873
v -0.009999999 0.01 -0.004031873
v -0.009999999 0.000691843 0.008646073
v 0.01 0.0006918431 0.008646073
v 0.01 -0.0005236209 0.004389029
v -0.009999999 -0.000523621 0.004389029
v 0.01 -0.00272043 -0.003305082
v -0.009999999 -0.00272043 -0.003305082
v -0.009999999 -0.00272043 -0.003305082
v 0.01 -0.00272043 -0.003305082
v 0.01 0.003841746 -0.006533966
v -0.009999999 0.003841746 -0.006533966
v -0.009999999 -0.000523621 0.004389029
v -0.009999999 -0.00272043 -0.003305082
v -0.009999999 0.003841746 -0.006533966
v -0.009999999 0.000691843 0.008646073
v -0.009999999 0.01 0.009587395
v -0.009999999 0.01 -0.004031873
v 0.01 0.003841746 -0.006533966
v 0.01 -0.00272043 -0.003305082
v 0.01 -0.0005236209 0.004389029
v 0.01 0.0006918431 0.008646073
v 0.01 0.01 0.009587395
v 0.01 0.01 -0.004031873
v -0.009999999 0.01 0.009587395
v 0.01 0.01 0.009587395
v 0.01 0.0006918431 0.008646073
v -0.009999999 0.000691843 0.008646073
vn 0 1 0
vn 0 1 0
vn 0 1 0
vn 0 1 0
vn 0 0.3764161 -0.9264507
vn 0 0.3764161 -0.9264507
vn 0 0.3764161 -0.9264507
vn 0 0.3764161 -0.9264507
vn 0 -0.9615738 0.2745468
vn 0 -0.9615738 0.2745468
vn 0 -0.9615738 0.2745468
vn 0 -0.9615738 0.2745468
vn 0 -0.9615738 0.2745468
vn 0 -0.9615738 0.2745468
vn 0 -0.4414941 -0.8972642
vn 0 -0.4414941 -0.8972642
vn 0 -0.4414941 -0.8972642
vn 0 -0.4414941 -0.8972642
vn -1 0 0
vn -1 0 0
vn -1 0 0
vn -1 0 0
vn -1 0 0
vn -1 0 0
vn 1 0 0
vn 1 0 0
vn 1 0 0
vn 1 0 0
vn 1 0 0
vn 1 0 0
vn 0 -0.1006155 0.9949254
vn 0 -0.1006155 0.9949254
vn 0 -0.1006155 0.9949254
vn 0 -0.1006155 0.9949254
g Cube.005_0
f 3/3/3 2/2/2 1/1/1
f 4/4/4 3/3/3 1/1/1
f 7/7/7 6/6/6 5/5/5
f 8/8/8 7/7/7 5/5/5
f 11/11/11 10/10/10 9/9/9
f 12/12/12 11/11/11 9/9/9
f 13/13/13 11/11/11 12/12/12
f 14/14/14 13/13/13 12/12/12
f 17/17/17 16/16/16 15/15/15
f 18/18/18 17/17/17 15/15/15
f 21/21/21 20/20/20 19/19/19
f 19/19/19 22/22/22 21/21/21
f 22/22/22 23/23/23 21/21/21
f 23/23/23 24/24/24 21/21/21
f 27/27/27 26/26/26 25/25/25
f 25/25/25 28/28/28 27/27/27
f 25/25/25 29/29/29 28/28/28
f 25/25/25 30/30/30 29/29/29
f 33/33/33 32/32/32 31/31/31
f 34/34/34 33/33/33 31/31/31
