g Cube.001
v -0.01 -0.006312806 -0.009999999
v 0.01 -0.006312807 -0.009999999
v 0.01 0.02652984 -0.009999999
v -0.01 0.02652984 -0.009999999
v -0.01 0.02652984 -0.009999999
v 0.01 0.02652984 -0.009999999
v 0.01 0.01950461 0.0002958675
v -0.01 0.01950461 0.0002958674
v -0.01 0.02652984 -0.009999999
v -0.01 0.01950461 0.0002958674
v -0.01 -0.0006084851 -0.00186515
v -0.01 -0.006312806 -0.009999999
v 0.01 0.02652984 -0.009999999
v 0.01 -0.006312807 -0.009999999
v 0.01 -0.0006084857 -0.00186515
v 0.01 0.01950461 0.0002958675
v -0.01 -0.0006084851 -0.00186515
v 0.01 -0.0006084857 -0.00186515
v 0.01 -0.006312807 -0.009999999
v -0.01 -0.006312806 -0.009999999
v -0.01 0.01950461 0.0002958674
v 0.01 0.01950461 0.0002958675
v 0.01 -0.0006084857 -0.00186515
v -0.01 -0.0006084851 -0.00186515
vn 0 0 -1
vn 0 0 -1
vn 0 0 -1
vn 0 0 -1
vn 0 0.8260289 0.5636277
vn 0 0.8260289 0.5636277
vn 0 0.8260289 0.5636277
vn 0 0.8260289 0.5636277
vn -1 0 0
vn -1 0 0
vn -1 0 0
vn -1 0 0
vn 1 0 0
vn 1 0 0
vn 1 0 0
vn 1 0 0
vn 0 -0.8187622 0.5741327
vn 0 -0.8187622 0.5741327
vn 0 -0.8187622 0.5741327
vn 0 -0.8187622 0.5741327
vn 0 -0.1068284 0.9942774
vn 0 -0.1068284 0.9942774
vn 0 -0.1068284 0.9942774
vn 0 -0.1068284 0.9942774
g Cube.001_0
f 3/3/3 2/2/2 1/1/1
f 4/4/4 3/3/3 1/1/1
f 7/7/7 6/6/6 5/5/5
f 8/8/8 7/7/7 5/5/5
f 11/11/11 10/10/10 9/9/9
f 12/12/12 11/11/11 9/9/9
f 15/15/15 14/14/14 13/13/13
f 16/16/16 15/15/15 13/13/13
f 19/19/19 18/18/18 17/17/17
f 20/20/20 19/19/19 17/17/17
f 23/23/23 22/22/22 21/21/21
f 24/24/24 23/23/23 21/21/21
