g Cube.029
v 0.007 -0.1494818 -0.001511419
v 0.007 -0.1494818 0.01
v 0.007 -0.1328271 0.01
v 0.007 -0.1366325 0.003117547
v -0.007 -0.1494818 -0.001511419
v -0.007 -0.1366325 0.003117547
v -0.007 -0.1328271 0.01
v -0.007 -0.1494818 0.01
v 0.007 -0.1494818 -0.001511419
v 0.007 -0.1366325 0.003117547
v -0.007 -0.1366325 0.003117547
v -0.007 -0.1494818 -0.001511419
v 0.007 -0.1494818 0.01
v 0.007 -0.1494818 -0.001511419
v -0.007 -0.1494818 -0.001511419
v -0.007 -0.1494818 0.01
v 0.007 -0.1328271 0.01
v 0.007 -0.1494818 0.01
v -0.007 -0.1494818 0.01
v -0.007 -0.1328271 0.01
v 0.007 -0.1366325 0.003117547
v 0.007 -0.1328271 0.01
v -0.007 -0.1328271 0.01
v -0.007 -0.1366325 0.003117547
vn 1 0 0
vn 1 0 0
vn 1 0 0
vn 1 0 0
vn -1 0 0
vn -1 0 0
vn -1 0 0
vn -1 0 0
vn 0 0.338927 -0.9408127
vn 0 0.338927 -0.9408127
vn 0 0.338927 -0.9408127
vn 0 0.338927 -0.9408127
vn 0 -1 0
vn 0 -1 0
vn 0 -1 0
vn 0 -1 0
vn 0 0 1
vn 0 0 1
vn 0 0 1
vn 0 0 1
vn 0 0.8751375 -0.4838742
vn 0 0.8751375 -0.4838742
vn 0 0.8751375 -0.4838742
vn 0 0.8751375 -0.4838742
g Cube.029_0
f 3/3/3 2/2/2 1/1/1
f 4/4/4 3/3/3 1/1/1
f 7/7/7 6/6/6 5/5/5
f 8/8/8 7/7/7 5/5/5
f 11/11/11 10/10/10 9/9/9
f 12/12/12 11/11/11 9/9/9
f 15/15/15 14/14/14 13/13/13
f 16/16/16 15/15/15 13/13/13
f 19/19/19 18/18/18 17/17/17
f 20/20/20 19/19/19 17/17/17
f 23/23/23 22/22/22 21/21/21
f 24/24/24 23/23/23 21/21/21
