g Cube.033
v 0.007 -0.123349 -0.003054395
v 0.007 -0.1104681 0.01000002
v 0.006999987 -0.1056033 -0.003314855
v 0.006999989 -0.1087341 -0.003268905
v -0.006999999 -0.123349 -0.003054395
v -0.00700001 -0.1087341 -0.003268905
v -0.007000013 -0.1056033 -0.003314855
v -0.006999999 -0.1104681 0.01000002
v -0.006999999 -0.123349 -0.003054395
v 0.007 -0.123349 -0.003054395
v 0.006999989 -0.1087341 -0.003268905
v -0.00700001 -0.1087341 -0.003268905
v 0.006999987 -0.1056033 -0.003314855
v -0.007000013 -0.1056033 -0.003314855
v -0.007000013 -0.1056033 -0.003314855
v 0.006999987 -0.1056033 -0.003314855
v 0.007 -0.1104681 0.01000002
v -0.006999999 -0.1104681 0.01000002
v -0.006999999 -0.1104681 0.01000002
v 0.007 -0.1104681 0.01000002
v 0.007 -0.123349 -0.003054395
v -0.006999999 -0.123349 -0.003054395
vn 1 7.608615E-07 -7.539776E-07
vn 1 7.608615E-07 -7.539776E-07
vn 1 7.608615E-07 -7.539776E-07
vn 1 7.608615E-07 -7.539776E-07
vn -1 -7.866199E-07 7.539784E-07
vn -1 -7.866199E-07 7.539784E-07
vn -1 -7.866199E-07 7.539784E-07
vn -1 -7.866199E-07 7.539784E-07
vn 0 -0.01467583 -0.9998924
vn 0 -0.01467583 -0.9998924
vn 0 -0.01467583 -0.9998924
vn 0 -0.01467583 -0.9998924
vn 0 -0.01467554 -0.9998924
vn 0 -0.01467554 -0.9998924
vn 0 0.939271 0.3431764
vn 0 0.939271 0.3431764
vn 0 0.939271 0.3431764
vn 0 0.939271 0.3431764
vn 0 -0.7118206 0.7023613
vn 0 -0.7118206 0.7023613
vn 0 -0.7118206 0.7023613
vn 0 -0.7118206 0.7023613
g Cube.033_0
f 3/3/3 2/2/2 1/1/1
f 4/4/4 3/3/3 1/1/1
f 7/7/7 6/6/6 5/5/5
f 8/8/8 7/7/7 5/5/5
f 11/11/11 10/10/10 9/9/9
f 12/12/12 11/11/11 9/9/9
f 13/13/13 11/11/11 12/12/12
f 14/14/14 13/13/13 12/12/12
f 17/17/17 16/16/16 15/15/15
f 18/18/18 17/17/17 15/15/15
f 21/21/21 20/20/20 19/19/19
f 22/22/22 21/21/21 19/19/19
