g Cube.031
v -0.007 0.01069303 0.004660551
v -0.007 0.0007243839 0.0002172542
v -0.006999999 0.003871598 -0.01
v -0.007 0.006762594 -0.01
v -0.006999999 0.01425604 0.0003757215
v -0.006999999 0.01425604 0.0003757215
v 0.007 0.01425604 0.0003757215
v 0.007 0.01069303 0.004660551
v -0.007 0.01069303 0.004660551
v -0.006999999 0.003871598 -0.01
v 0.007 0.003871598 -0.01
v 0.007 0.006762594 -0.01
v -0.007 0.006762594 -0.01
v -0.007 0.01069303 0.004660551
v 0.007 0.01069303 0.004660551
v 0.007 0.0007243839 0.0002172542
v -0.007 0.0007243839 0.0002172542
v -0.007 0.0007243839 0.0002172542
v 0.007 0.0007243839 0.0002172542
v 0.007 0.003871598 -0.01
v -0.006999999 0.003871598 -0.01
v -0.007 0.006762594 -0.01
v 0.007 0.006762594 -0.01
v 0.007 0.01425604 0.0003757215
v -0.006999999 0.01425604 0.0003757215
v 0.007 0.003871598 -0.01
v 0.007 0.0007243839 0.0002172542
v 0.007 0.01069303 0.004660551
v 0.007 0.006762594 -0.01
v 0.007 0.01425604 0.0003757215
vn -1 0 0
vn -1 0 0
vn -1 0 0
vn -1 0 0
vn -1 0 0
vn 0 0.7688982 0.6393712
vn 0 0.7688982 0.6393712
vn 0 0.7688982 0.6393712
vn 0 0.7688982 0.6393712
vn 0 0 -1
vn 0 0 -1
vn 0 0 -1
vn 0 0 -1
vn 0 -0.4071168 0.9133762
vn 0 -0.4071168 0.9133762
vn 0 -0.4071168 0.9133762
vn 0 -0.4071168 0.9133762
vn 0 -0.9556885 -0.2943801
vn 0 -0.9556885 -0.2943801
vn 0 -0.9556885 -0.2943801
vn 0 -0.9556885 -0.2943801
vn 0 0.810684 -0.5854838
vn 0 0.810684 -0.5854838
vn 0 0.810684 -0.5854838
vn 0 0.810684 -0.5854838
vn 1 0 0
vn 1 0 0
vn 1 0 0
vn 1 0 0
vn 1 0 0
g Cube.031_0
f 3/3/3 2/2/2 1/1/1
f 1/1/1 4/4/4 3/3/3
f 1/1/1 5/5/5 4/4/4
f 8/8/8 7/7/7 6/6/6
f 9/9/9 8/8/8 6/6/6
f 12/12/12 11/11/11 10/10/10
f 13/13/13 12/12/12 10/10/10
f 16/16/16 15/15/15 14/14/14
f 17/17/17 16/16/16 14/14/14
f 20/20/20 19/19/19 18/18/18
f 21/21/21 20/20/20 18/18/18
f 24/24/24 23/23/23 22/22/22
f 25/25/25 24/24/24 22/22/22
f 28/28/28 27/27/27 26/26/26
f 26/26/26 29/29/29 28/28/28
f 29/29/29 30/30/30 28/28/28
