g Cube
v 0.01 0.009999999 -0.01
v 0.004863428 0.004863428 -0.01954504
v 0.004863428 -0.004863427 -0.01954504
v 0.01 -0.01 -0.01
v -0.01 -0.009999998 -0.01
v -0.004863429 -0.004863427 -0.01954504
v -0.004863426 0.004863431 -0.01954504
v -0.009999996 0.01 -0.01
v 0.01 0.009999999 -0.01
v 0.01 -0.01 -0.01
v -1.341104E-09 -1.788139E-09 0.03174885
v 0.01 -0.01 -0.01
v -0.01 -0.009999998 -0.01
v -1.341104E-09 -1.788139E-09 0.03174885
v -0.01 -0.009999998 -0.01
v -0.009999996 0.01 -0.01
v -1.341104E-09 -1.788139E-09 0.03174885
v -1.341104E-09 -1.788139E-09 0.03174885
v -0.009999996 0.01 -0.01
v 0.01 0.009999999 -0.01
v 0.004863428 0.004863428 -0.01954504
v -0.004863426 0.004863431 -0.01954504
v -0.004863429 -0.004863427 -0.01954504
v 0.004863428 -0.004863427 -0.01954504
v 0.01 -0.01 -0.01
v 0.004863428 -0.004863427 -0.01954504
v -0.004863429 -0.004863427 -0.01954504
v -0.01 -0.009999998 -0.01
v -0.009999996 0.01 -0.01
v -0.004863426 0.004863431 -0.01954504
v 0.004863428 0.004863428 -0.01954504
v 0.01 0.009999999 -0.01
vn 0.8805892 0 -0.4738804
vn 0.8805892 0 -0.4738804
vn 0.8805892 0 -0.4738804
vn 0.8805892 0 -0.4738804
vn -0.8805892 2.58973E-07 -0.4738804
vn -0.8805892 2.58973E-07 -0.4738804
vn -0.8805892 2.58973E-07 -0.4738804
vn -0.8805892 2.58973E-07 -0.4738804
vn 0.9724914 0 0.2329385
vn 0.9724914 0 0.2329385
vn 0.9724914 0 0.2329385
vn 0 -0.9724916 0.2329384
vn 0 -0.9724916 0.2329384
vn 0 -0.9724916 0.2329384
vn -0.9724916 2.221475E-07 0.2329385
vn -0.9724916 2.221475E-07 0.2329385
vn -0.9724916 2.221475E-07 0.2329385
vn 1.804948E-07 0.9724914 0.2329386
vn 1.804948E-07 0.9724914 0.2329386
vn 1.804948E-07 0.9724914 0.2329386
vn 0 0 -1
vn 0 0 -1
vn 0 0 -1
vn 0 0 -1
vn 0 -0.8805893 -0.4738803
vn 0 -0.8805893 -0.4738803
vn 0 -0.8805893 -0.4738803
vn 0 -0.8805893 -0.4738803
vn 1.782481E-07 0.8805892 -0.4738804
vn 1.782481E-07 0.8805892 -0.4738804
vn 1.782481E-07 0.8805892 -0.4738804
vn 1.782481E-07 0.8805892 -0.4738804
g Cube_0
f 3/3/3 2/2/2 1/1/1
f 4/4/4 3/3/3 1/1/1
f 7/7/7 6/6/6 5/5/5
f 8/8/8 7/7/7 5/5/5
f 11/11/11 10/10/10 9/9/9
f 14/14/14 13/13/13 12/12/12
f 17/17/17 16/16/16 15/15/15
f 20/20/20 19/19/19 18/18/18
f 23/23/23 22/22/22 21/21/21
f 24/24/24 23/23/23 21/21/21
f 27/27/27 26/26/26 25/25/25
f 28/28/28 27/27/27 25/25/25
f 31/31/31 30/30/30 29/29/29
f 32/32/32 31/31/31 29/29/29
