g Cube.010
v -0.01 -0.08423952 0.009999991
v 0.009999995 -0.08423952 0.009999991
v 0.009999992 -0.1045664 0.009999991
v -0.01000001 -0.1045664 0.009999991
v -0.01 -0.08371564 0.004830939
v 0.01 -0.08371564 0.004830939
v 0.009999995 -0.08423952 0.009999991
v -0.01 -0.08423952 0.009999991
v -0.01 -0.1045663 -0.01000001
v 0.01 -0.1045663 -0.01000001
v 0.01 -0.08371564 0.004830939
v -0.01 -0.08371564 0.004830939
v -0.01000001 -0.1045664 0.009999991
v 0.009999992 -0.1045664 0.009999991
v 0.01 -0.1045663 -0.01000001
v -0.01 -0.1045663 -0.01000001
v -0.01 -0.1045663 -0.01000001
v -0.01 -0.08371564 0.004830939
v -0.01 -0.08423952 0.009999991
v -0.01000001 -0.1045664 0.009999991
v 0.01 -0.1045663 -0.01000001
v 0.009999992 -0.1045664 0.009999991
v 0.009999995 -0.08423952 0.009999991
v 0.01 -0.08371564 0.004830939
vn 0 0 1
vn 0 0 1
vn 0 0 1
vn 0 0 1
vn 0 0.9949033 0.1008333
vn 0 0.9949033 0.1008333
vn 0 0.9949033 0.1008333
vn 0 0.9949033 0.1008333
vn 0 0.5796224 -0.8148853
vn 0 0.5796224 -0.8148853
vn 0 0.5796224 -0.8148853
vn 0 0.5796224 -0.8148853
vn 0 -1 -3.300303E-06
vn 0 -1 -3.300303E-06
vn 0 -1 -3.300303E-06
vn 0 -1 -3.300303E-06
vn -1 2.511663E-07 -4.68913E-07
vn -1 2.511663E-07 -4.68913E-07
vn -1 2.511663E-07 -4.68913E-07
vn -1 2.511663E-07 -4.68913E-07
vn 1 -2.054997E-07 4.68913E-07
vn 1 -2.054997E-07 4.68913E-07
vn 1 -2.054997E-07 4.68913E-07
vn 1 -2.054997E-07 4.68913E-07
g Cube.010_0
f 3/3/3 2/2/2 1/1/1
f 4/4/4 3/3/3 1/1/1
f 7/7/7 6/6/6 5/5/5
f 8/8/8 7/7/7 5/5/5
f 11/11/11 10/10/10 9/9/9
f 12/12/12 11/11/11 9/9/9
f 15/15/15 14/14/14 13/13/13
f 16/16/16 15/15/15 13/13/13
f 19/19/19 18/18/18 17/17/17
f 20/20/20 19/19/19 17/17/17
f 23/23/23 22/22/22 21/21/21
f 24/24/24 23/23/23 21/21/21
