g Cube.004
v 0.006999987 0.1042068 -0.003542549
v 0.007 0.09693893 0.002172236
v 0.007 0.1005729 0.01000002
v 0.007 0.1137109 0.01000002
v 0.007 0.1159472 2.919418E-05
v -0.007 0.1005729 0.01000002
v -0.007 0.09693893 0.002172236
v -0.007000013 0.1042068 -0.003542549
v -0.007 0.1137109 0.01000002
v -0.007 0.1159472 2.919418E-05
v 0.006999987 0.1042068 -0.003542549
v 0.007 0.1159472 2.919418E-05
v -0.007 0.1159472 2.919418E-05
v -0.007000013 0.1042068 -0.003542549
v 0.007 0.09693893 0.002172236
v 0.006999987 0.1042068 -0.003542549
v -0.007000013 0.1042068 -0.003542549
v -0.007 0.09693893 0.002172236
v 0.007 0.1137109 0.01000002
v 0.007 0.1005729 0.01000002
v -0.007 0.1005729 0.01000002
v -0.007 0.1137109 0.01000002
v 0.007 0.1159472 2.919418E-05
v 0.007 0.1137109 0.01000002
v -0.007 0.1137109 0.01000002
v -0.007 0.1159472 2.919418E-05
v 0.007 0.1005729 0.01000002
v 0.007 0.09693893 0.002172236
v -0.007 0.09693893 0.002172236
v -0.007 0.1005729 0.01000002
vn 1 0 -6.548499E-07
vn 1 0 -6.548499E-07
vn 1 0 -6.548499E-07
vn 1 0 -6.548499E-07
vn 1 0 -6.548499E-07
vn -1 0 6.548499E-07
vn -1 0 6.548499E-07
vn -1 0 6.548499E-07
vn -1 0 6.548499E-07
vn -1 0 6.548499E-07
vn 0 0.2910551 -0.9567062
vn 0 0.2910551 -0.9567062
vn 0 0.2910551 -0.9567062
vn 0 0.2910551 -0.9567062
vn 0 -0.6181101 -0.7860915
vn 0 -0.6181101 -0.7860915
vn 0 -0.6181101 -0.7860915
vn 0 -0.6181101 -0.7860915
vn 0 0 1
vn 0 0 1
vn 0 0 1
vn 0 0 1
vn 0 0.9757597 0.2188448
vn 0 0.9757597 0.2188448
vn 0 0.9757597 0.2188448
vn 0 0.9757597 0.2188448
vn 0 -0.9070261 0.4210745
vn 0 -0.9070261 0.4210745
vn 0 -0.9070261 0.4210745
vn 0 -0.9070261 0.4210745
g Cube.004_0
f 3/3/3 2/2/2 1/1/1
f 1/1/1 4/4/4 3/3/3
f 1/1/1 5/5/5 4/4/4
f 8/8/8 7/7/7 6/6/6
f 6/6/6 9/9/9 8/8/8
f 9/9/9 10/10/10 8/8/8
f 13/13/13 12/12/12 11/11/11
f 14/14/14 13/13/13 11/11/11
f 17/17/17 16/16/16 15/15/15
f 18/18/18 17/17/17 15/15/15
f 21/21/21 20/20/20 19/19/19
f 22/22/22 21/21/21 19/19/19
f 25/25/25 24/24/24 23/23/23
f 26/26/26 25/25/25 23/23/23
f 29/29/29 28/28/28 27/27/27
f 30/30/30 29/29/29 27/27/27
