g Cube
v -0.009999995 0.1045663 0.01000001
v 0.01 0.1045663 0.01000001
v 0.01 0.0946233 0.01000001
v -0.009999995 0.0946233 0.01000001
v -0.009999999 0.1045663 -0.001113212
v 0.01 0.1045663 -0.001113212
v 0.01 0.1045663 0.01000001
v -0.009999995 0.1045663 0.01000001
v -0.01 0.09732522 -0.001215875
v 0.01 0.09732522 -0.001215875
v 0.01 0.1045663 -0.001113212
v -0.009999999 0.1045663 -0.001113212
v -0.009999995 0.0946233 0.01000001
v 0.01 0.0946233 0.01000001
v 0.01 0.09732522 -0.001215875
v -0.01 0.09732522 -0.001215875
v 0.01 0.09732522 -0.001215875
v 0.01 0.0946233 0.01000001
v 0.01 0.1045663 0.01000001
v 0.01 0.1045663 -0.001113212
v -0.01 0.09732522 -0.001215875
v -0.009999999 0.1045663 -0.001113212
v -0.009999995 0.1045663 0.01000001
v -0.009999995 0.0946233 0.01000001
vn 0 0 1
vn 0 0 1
vn 0 0 1
vn 0 0 1
vn 0 1 1.682493E-06
vn 0 1 1.682493E-06
vn 0 1 1.682493E-06
vn 0 1 1.682493E-06
vn 0 0.0141764 -0.9998995
vn 0 0.0141764 -0.9998995
vn 0 0.0141764 -0.9998995
vn 0 0.0141764 -0.9998995
vn 0 -0.9721881 -0.2342018
vn 0 -0.9721881 -0.2342018
vn 0 -0.9721881 -0.2342018
vn 0 -0.9721881 -0.2342018
vn 1 0 -3.818306E-07
vn 1 0 -3.818306E-07
vn 1 0 -3.818306E-07
vn 1 0 -3.818306E-07
vn -1 1.241818E-07 3.818306E-07
vn -1 1.241818E-07 3.818306E-07
vn -1 1.241818E-07 3.818306E-07
vn -1 1.241818E-07 3.818306E-07
g Cube_0
f 3/3/3 2/2/2 1/1/1
f 4/4/4 3/3/3 1/1/1
f 7/7/7 6/6/6 5/5/5
f 8/8/8 7/7/7 5/5/5
f 11/11/11 10/10/10 9/9/9
f 12/12/12 11/11/11 9/9/9
f 15/15/15 14/14/14 13/13/13
f 16/16/16 15/15/15 13/13/13
f 19/19/19 18/18/18 17/17/17
f 20/20/20 19/19/19 17/17/17
f 23/23/23 22/22/22 21/21/21
f 24/24/24 23/23/23 21/21/21
