g Cube.016
v 0.007 0.105884 -0.01000001
v 0.006999987 0.1042068 -0.003542576
v 0.007 0.1159472 2.916737E-05
v 0.007 0.1316011 -0.01000001
v 0.007 0.1310421 -0.002828218
v -0.007 0.1159472 2.916737E-05
v -0.007000013 0.1042068 -0.003542576
v -0.007 0.105884 -0.01000001
v -0.007 0.1316011 -0.01000001
v -0.006999999 0.1310421 -0.002828218
v 0.007 0.1159472 2.916737E-05
v 0.006999987 0.1042068 -0.003542576
v -0.007000013 0.1042068 -0.003542576
v -0.007 0.1159472 2.916737E-05
v 0.007 0.105884 -0.01000001
v 0.007 0.1316011 -0.01000001
v -0.007 0.1316011 -0.01000001
v -0.007 0.105884 -0.01000001
v 0.006999987 0.1042068 -0.003542576
v 0.007 0.105884 -0.01000001
v -0.007 0.105884 -0.01000001
v -0.007000013 0.1042068 -0.003542576
v 0.007 0.1310421 -0.002828218
v 0.007 0.1159472 2.916737E-05
v -0.007 0.1159472 2.916737E-05
v -0.006999999 0.1310421 -0.002828218
v 0.007 0.1316011 -0.01000001
v 0.007 0.1310421 -0.002828218
v -0.006999999 0.1310421 -0.002828218
v -0.007 0.1316011 -0.01000001
vn 1 -3.204663E-07 2.747141E-07
vn 1 -3.204663E-07 2.747141E-07
vn 1 -3.204663E-07 2.747141E-07
vn 1 -3.204663E-07 2.747141E-07
vn 1 -3.204663E-07 2.747141E-07
vn -1 3.204663E-07 -2.747143E-07
vn -1 3.204663E-07 -2.747143E-07
vn -1 3.204663E-07 -2.747143E-07
vn -1 3.204663E-07 -2.747143E-07
vn -1 3.204663E-07 -2.747143E-07
vn 0 -0.291055 0.9567063
vn 0 -0.291055 0.9567063
vn 0 -0.291055 0.9567063
vn 0 -0.291055 0.9567063
vn 0 0 -1
vn 0 0 -1
vn 0 0 -1
vn 0 0 -1
vn 0 -0.9678842 -0.2513963
vn 0 -0.9678842 -0.2513963
vn 0 -0.9678842 -0.2513963
vn 0 -0.9678842 -0.2513963
vn 0 0.1859925 0.9825512
vn 0 0.1859925 0.9825512
vn 0 0.1859925 0.9825512
vn 0 0.1859925 0.9825512
vn 0 0.9969755 0.07771652
vn 0 0.9969755 0.07771652
vn 0 0.9969755 0.07771652
vn 0 0.9969755 0.07771652
g Cube.016_0
f 3/3/3 2/2/2 1/1/1
f 1/1/1 4/4/4 3/3/3
f 4/4/4 5/5/5 3/3/3
f 8/8/8 7/7/7 6/6/6
f 6/6/6 9/9/9 8/8/8
f 6/6/6 10/10/10 9/9/9
f 13/13/13 12/12/12 11/11/11
f 14/14/14 13/13/13 11/11/11
f 17/17/17 16/16/16 15/15/15
f 18/18/18 17/17/17 15/15/15
f 21/21/21 20/20/20 19/19/19
f 22/22/22 21/21/21 19/19/19
f 25/25/25 24/24/24 23/23/23
f 26/26/26 25/25/25 23/23/23
f 29/29/29 28/28/28 27/27/27
f 30/30/30 29/29/29 27/27/27
