g Cube.002
v 0.007 0.07345813 -0.009999989
v 0.006999987 0.06283583 0.0007435259
v 0.007 0.06926511 0.01000001
v 0.007000013 0.07821018 -0.0003279844
v -0.007 0.07345813 -0.009999989
v -0.006999987 0.07821018 -0.0003279844
v -0.007 0.06926511 0.01000001
v -0.007000013 0.06283583 0.0007435259
v 0.007 0.07345813 -0.009999989
v 0.007000013 0.07821018 -0.0003279844
v -0.006999987 0.07821018 -0.0003279844
v -0.007 0.07345813 -0.009999989
v 0.006999987 0.06283583 0.0007435259
v 0.007 0.07345813 -0.009999989
v -0.007 0.07345813 -0.009999989
v -0.007000013 0.06283583 0.0007435259
v 0.007 0.06926511 0.01000001
v 0.006999987 0.06283583 0.0007435259
v -0.007000013 0.06283583 0.0007435259
v -0.007 0.06926511 0.01000001
v 0.007000013 0.07821018 -0.0003279844
v 0.007 0.06926511 0.01000001
v -0.007 0.06926511 0.01000001
v -0.006999987 0.07821018 -0.0003279844
vn 1 -1.691781E-06 -3.629313E-07
vn 1 -1.691781E-06 -3.629313E-07
vn 1 -1.691781E-06 -3.629313E-07
vn 1 -1.691781E-06 -3.629313E-07
vn -1 1.770469E-06 3.629313E-07
vn -1 1.770469E-06 3.629313E-07
vn -1 1.770469E-06 3.629313E-07
vn -1 1.770469E-06 3.629313E-07
vn 0 0.8975217 -0.4409704
vn 0 0.8975217 -0.4409704
vn 0 0.8975217 -0.4409704
vn 0 0.8975217 -0.4409704
vn 0 -0.7111069 -0.7030839
vn 0 -0.7111069 -0.7030839
vn 0 -0.7111069 -0.7030839
vn 0 -0.7111069 -0.7030839
vn 0 -0.8213213 0.5704658
vn 0 -0.8213213 0.5704658
vn 0 -0.8213213 0.5704658
vn 0 -0.8213213 0.5704658
vn 0 0.7559012 0.6546857
vn 0 0.7559012 0.6546857
vn 0 0.7559012 0.6546857
vn 0 0.7559012 0.6546857
g Cube.002_0
f 3/3/3 2/2/2 1/1/1
f 4/4/4 3/3/3 1/1/1
f 7/7/7 6/6/6 5/5/5
f 8/8/8 7/7/7 5/5/5
f 11/11/11 10/10/10 9/9/9
f 12/12/12 11/11/11 9/9/9
f 15/15/15 14/14/14 13/13/13
f 16/16/16 15/15/15 13/13/13
f 19/19/19 18/18/18 17/17/17
f 20/20/20 19/19/19 17/17/17
f 23/23/23 22/22/22 21/21/21
f 24/24/24 23/23/23 21/21/21
