g Cube.008
v -0.01 -0.06096202 -0.01000002
v 0.01 -0.06096202 -0.01000002
v 0.01 -0.03237589 -0.01000002
v -0.01 -0.03237589 -0.01000002
v -0.01000002 -0.06020725 -0.003553494
v 0.009999981 -0.06020725 -0.003553494
v 0.01 -0.06096202 -0.01000002
v -0.01 -0.06096202 -0.01000002
v -0.01 -0.03237589 -0.01000002
v -0.01 -0.04102261 -0.001215903
v -0.01000002 -0.06020725 -0.003553494
v -0.01 -0.06096202 -0.01000002
v -0.01 -0.04102261 -0.001215903
v 0.01 -0.04102261 -0.001215903
v 0.009999981 -0.06020725 -0.003553494
v -0.01000002 -0.06020725 -0.003553494
v -0.01 -0.03237589 -0.01000002
v 0.01 -0.03237589 -0.01000002
v 0.01 -0.04102261 -0.001215903
v -0.01 -0.04102261 -0.001215903
v 0.01 -0.03237589 -0.01000002
v 0.01 -0.06096202 -0.01000002
v 0.009999981 -0.06020725 -0.003553494
v 0.01 -0.04102261 -0.001215903
vn 0 0 -1
vn 0 0 -1
vn 0 0 -1
vn 0 0 -1
vn 0 -0.9932156 0.1162867
vn 0 -0.9932156 0.1162867
vn 0 -0.9932156 0.1162867
vn 0 -0.9932156 0.1162867
vn -1 4.234489E-07 -1.019571E-06
vn -1 4.234489E-07 -1.019571E-06
vn -1 4.234489E-07 -1.019571E-06
vn -1 4.234489E-07 -1.019571E-06
vn 0 -0.1209524 0.9926583
vn 0 -0.1209524 0.9926583
vn 0 -0.1209524 0.9926583
vn 0 -0.1209524 0.9926583
vn 0 0.7126583 0.7015112
vn 0 0.7126583 0.7015112
vn 0 0.7126583 0.7015112
vn 0 0.7126583 0.7015112
vn 1 -4.474177E-07 1.019571E-06
vn 1 -4.474177E-07 1.019571E-06
vn 1 -4.474177E-07 1.019571E-06
vn 1 -4.474177E-07 1.019571E-06
g Cube.008_0
f 3/3/3 2/2/2 1/1/1
f 4/4/4 3/3/3 1/1/1
f 7/7/7 6/6/6 5/5/5
f 8/8/8 7/7/7 5/5/5
f 11/11/11 10/10/10 9/9/9
f 12/12/12 11/11/11 9/9/9
f 15/15/15 14/14/14 13/13/13
f 16/16/16 15/15/15 13/13/13
f 19/19/19 18/18/18 17/17/17
f 20/20/20 19/19/19 17/17/17
f 23/23/23 22/22/22 21/21/21
f 24/24/24 23/23/23 21/21/21
