g Cube.017
v 0.007 -0.05224469 0.01000005
v 0.007 -0.03291115 0.01000005
v 0.006999972 -0.03887383 -6.914139E-05
v 0.007 -0.05134125 0.003163085
v -0.007 -0.05134125 0.003163085
v 0.007 -0.05134125 0.003163085
v 0.006999972 -0.03887383 -6.914139E-05
v -0.007000027 -0.03887383 -6.914139E-05
v -0.007 -0.05224469 0.01000005
v -0.007 -0.05134125 0.003163085
v -0.007000027 -0.03887383 -6.914139E-05
v -0.007 -0.03291115 0.01000005
v -0.007 -0.03291115 0.01000005
v 0.007 -0.03291115 0.01000005
v 0.007 -0.05224469 0.01000005
v -0.007 -0.05224469 0.01000005
v -0.007000027 -0.03887383 -6.914139E-05
v 0.006999972 -0.03887383 -6.914139E-05
v 0.007 -0.03291115 0.01000005
v -0.007 -0.03291115 0.01000005
v -0.007 -0.05224469 0.01000005
v 0.007 -0.05224469 0.01000005
v 0.007 -0.05134125 0.003163085
v -0.007 -0.05134125 0.003163085
vn 1 6.885925E-07 -1.824306E-06
vn 1 6.885925E-07 -1.824306E-06
vn 1 6.885925E-07 -1.824306E-06
vn 1 6.885925E-07 -1.824306E-06
vn 0 -0.2509572 -0.9679983
vn 0 -0.2509572 -0.9679983
vn 0 -0.2509572 -0.9679983
vn 0 -0.2509572 -0.9679983
vn -1 -6.885925E-07 1.824306E-06
vn -1 -6.885925E-07 1.824306E-06
vn -1 -6.885925E-07 1.824306E-06
vn -1 -6.885925E-07 1.824306E-06
vn 0 0 1
vn 0 0 1
vn 0 0 1
vn 0 0 1
vn 0 0.860451 -0.5095333
vn 0 0.860451 -0.5095333
vn 0 0.860451 -0.5095333
vn 0 0.860451 -0.5095333
vn 0 -0.9913822 -0.1310016
vn 0 -0.9913822 -0.1310016
vn 0 -0.9913822 -0.1310016
vn 0 -0.9913822 -0.1310016
g Cube.017_0
f 3/3/3 2/2/2 1/1/1
f 4/4/4 3/3/3 1/1/1
f 7/7/7 6/6/6 5/5/5
f 8/8/8 7/7/7 5/5/5
f 11/11/11 10/10/10 9/9/9
f 12/12/12 11/11/11 9/9/9
f 15/15/15 14/14/14 13/13/13
f 16/16/16 15/15/15 13/13/13
f 19/19/19 18/18/18 17/17/17
f 20/20/20 19/19/19 17/17/17
f 23/23/23 22/22/22 21/21/21
f 24/24/24 23/23/23 21/21/21
