g Cube
v 0.02471535 -0.01000001 0.05628512
v 0.02980057 -0.01000001 0.06045695
v 0.03173997 -0.01000001 0.05648886
v 0.02541709 -0.01000001 0.0552301
v 0.02372054 -0.01000001 0.05689562
v 0.02573642 -0.01000001 0.06240181
v 0.01925912 -0.01000001 0.05718288
v 0.01914615 -0.01000001 0.06325466
v 0.02573642 -0.01000001 0.06240181
v 0.02372054 -0.01000001 0.05689562
v 0.004602698 -0.009999996 0.06325466
v 0.004354664 -0.009999996 0.05912346
v 0.02541709 -0.01000001 0.0552301
v 0.03173997 -0.01000001 0.05648886
v 0.03171388 -0.009999987 -0.1101025
v 0.02531698 -0.009999987 -0.1101025
vt 0.06266059 0.44243
vt 0.06273498 0.4564385
vt 0.07026988 0.4564336
vt 0.07029209 0.4424086
vt 0.05359204 0.4424344
vt 0.0537031 0.4564341
vt 0.03659572 0.4424582
vt 0.03629629 0.4564414
vt 0.0537031 0.4564341
vt 0.05359204 0.4424344
vt 0.005857199 0.4564345
vt 0.00583373 0.4424923
vt 0.07029209 0.4424086
vt 0.07026988 0.4564336
vt 0.4760575 0.4564325
vt 0.4760575 0.442409
vn 0 -1 0
vn 0 -1 0
vn 0 -1 0
vn 0 -1 0
vn 0 -1 0
vn 0 -1 0
vn 0 -1 -1.832219E-07
vn 0 -1 -1.832219E-07
vn 0 -1 -1.832219E-07
vn 0 -1 -1.832219E-07
vn -6.471381E-07 -1 0
vn -6.471381E-07 -1 0
vn 0 -1 -1.130335E-07
vn 0 -1 -1.130335E-07
vn 0 -1 -1.130335E-07
vn 0 -1 -1.130335E-07
g Cube_0
f 3/3/3 2/2/2 1/1/1
f 4/4/4 3/3/3 1/1/1
f 1/1/1 2/2/2 5/5/5
f 2/2/2 6/6/6 5/5/5
f 9/9/9 8/8/8 7/7/7
f 10/10/10 9/9/9 7/7/7
f 8/8/8 11/11/11 7/7/7
f 11/11/11 12/12/12 7/7/7
f 15/15/15 14/14/14 13/13/13
f 16/16/16 15/15/15 13/13/13
