g Cube.008
v -0.007 0.09249055 -0.01000001
v 0.007 0.09249055 -0.01000001
v 0.007 0.105884 -0.01000001
v -0.007 0.105884 -0.01000001
v 0.007 0.09693892 0.00217221
v 0.006999987 0.1042068 -0.003542575
v 0.007 0.105884 -0.01000001
v 0.007 0.09249055 -0.01000001
v -0.006999999 0.09693892 0.00217221
v -0.007 0.09249055 -0.01000001
v -0.007 0.105884 -0.01000001
v -0.007000013 0.1042068 -0.003542575
v -0.007000013 0.1042068 -0.003542575
v 0.006999987 0.1042068 -0.003542575
v 0.007 0.09693892 0.00217221
v -0.006999999 0.09693892 0.00217221
v -0.006999999 0.09693892 0.00217221
v 0.007 0.09693892 0.00217221
v 0.007 0.09249055 -0.01000001
v -0.007 0.09249055 -0.01000001
v -0.007 0.105884 -0.01000001
v 0.007 0.105884 -0.01000001
v 0.006999987 0.1042068 -0.003542575
v -0.007000013 0.1042068 -0.003542575
vn 0 0 -1
vn 0 0 -1
vn 0 0 -1
vn 0 0 -1
vn 1 8.923971E-07 5.505357E-07
vn 1 8.923971E-07 5.505357E-07
vn 1 8.923971E-07 5.505357E-07
vn 1 8.923971E-07 5.505357E-07
vn -1 -8.923969E-07 -5.505357E-07
vn -1 -8.923969E-07 -5.505357E-07
vn -1 -8.923969E-07 -5.505357E-07
vn -1 -8.923969E-07 -5.505357E-07
vn 0 0.6181102 0.7860913
vn 0 0.6181102 0.7860913
vn 0 0.6181102 0.7860913
vn 0 0.6181102 0.7860913
vn 0 -0.9392443 0.3432493
vn 0 -0.9392443 0.3432493
vn 0 -0.9392443 0.3432493
vn 0 -0.9392443 0.3432493
vn 0 0.9678849 0.251394
vn 0 0.9678849 0.251394
vn 0 0.9678849 0.251394
vn 0 0.9678849 0.251394
g Cube.008_0
f 3/3/3 2/2/2 1/1/1
f 4/4/4 3/3/3 1/1/1
f 7/7/7 6/6/6 5/5/5
f 8/8/8 7/7/7 5/5/5
f 11/11/11 10/10/10 9/9/9
f 12/12/12 11/11/11 9/9/9
f 15/15/15 14/14/14 13/13/13
f 16/16/16 15/15/15 13/13/13
f 19/19/19 18/18/18 17/17/17
f 20/20/20 19/19/19 17/17/17
f 23/23/23 22/22/22 21/21/21
f 24/24/24 23/23/23 21/21/21
