g Cube.009
v -0.01000002 -0.06020726 -0.003553485
v 0.009999981 -0.06020726 -0.003553485
v 0.01 -0.08371565 0.004830937
v -0.01 -0.08371565 0.004830937
v -0.01 -0.06096203 -0.01000001
v 0.01 -0.06096203 -0.01000001
v 0.009999981 -0.06020726 -0.003553485
v -0.01000002 -0.06020726 -0.003553485
v -0.01 -0.06096203 -0.01000001
v -0.01000002 -0.06020726 -0.003553485
v -0.01 -0.08371565 0.004830937
v -0.01 -0.1045663 -0.01000001
v -0.01 -0.08371565 0.004830937
v 0.01 -0.08371565 0.004830937
v 0.01 -0.1045663 -0.01000001
v -0.01 -0.1045663 -0.01000001
v -0.01 -0.1045663 -0.01000001
v 0.01 -0.1045663 -0.01000001
v 0.01 -0.06096203 -0.01000001
v -0.01 -0.06096203 -0.01000001
v 0.01 -0.06096203 -0.01000001
v 0.01 -0.1045663 -0.01000001
v 0.01 -0.08371565 0.004830937
v 0.009999981 -0.06020726 -0.003553485
vn 0 0.3359303 0.941887
vn 0 0.3359303 0.941887
vn 0 0.3359303 0.941887
vn 0 0.3359303 0.941887
vn 0 0.9932156 -0.1162875
vn 0 0.9932156 -0.1162875
vn 0 0.9932156 -0.1162875
vn 0 0.9932156 -0.1162875
vn -1 -3.25964E-07 -5.394079E-07
vn -1 -3.25964E-07 -5.394079E-07
vn -1 -3.25964E-07 -5.394079E-07
vn -1 -3.25964E-07 -5.394079E-07
vn 0 -0.5796224 0.8148851
vn 0 -0.5796224 0.8148851
vn 0 -0.5796224 0.8148851
vn 0 -0.5796224 0.8148851
vn 0 0 -1
vn 0 0 -1
vn 0 0 -1
vn 0 0 -1
vn 1 3.555971E-07 5.394078E-07
vn 1 3.555971E-07 5.394078E-07
vn 1 3.555971E-07 5.394078E-07
vn 1 3.555971E-07 5.394078E-07
g Cube.009_0
f 3/3/3 2/2/2 1/1/1
f 4/4/4 3/3/3 1/1/1
f 7/7/7 6/6/6 5/5/5
f 8/8/8 7/7/7 5/5/5
f 11/11/11 10/10/10 9/9/9
f 12/12/12 11/11/11 9/9/9
f 15/15/15 14/14/14 13/13/13
f 16/16/16 15/15/15 13/13/13
f 19/19/19 18/18/18 17/17/17
f 20/20/20 19/19/19 17/17/17
f 23/23/23 22/22/22 21/21/21
f 24/24/24 23/23/23 21/21/21
