g Cube.027
v 0.007 -0.03479271 -0.01
v 0.007 -0.06296971 -0.01
v 0.007 -0.05532168 -0.0009970859
v -0.007 -0.03479271 -0.01
v -0.007 -0.05532168 -0.0009970859
v -0.007 -0.06296971 -0.01
v 0.007 -0.06296971 -0.01
v 0.007 -0.03479271 -0.01
v -0.007 -0.03479271 -0.01
v -0.007 -0.06296971 -0.01
v 0.007 -0.05532168 -0.0009970859
v 0.007 -0.06296971 -0.01
v -0.007 -0.06296971 -0.01
v -0.007 -0.05532168 -0.0009970859
v 0.007 -0.03479271 -0.01
v 0.007 -0.05532168 -0.0009970859
v -0.007 -0.05532168 -0.0009970859
v -0.007 -0.03479271 -0.01
vn 1 0 0
vn 1 0 0
vn 1 0 0
vn -1 0 0
vn -1 0 0
vn -1 0 0
vn 0 0 -1
vn 0 0 -1
vn 0 0 -1
vn 0 0 -1
vn 0 -0.7621249 0.64743
vn 0 -0.7621249 0.64743
vn 0 -0.7621249 0.64743
vn 0 -0.7621249 0.64743
vn 0 0.4016233 0.915805
vn 0 0.4016233 0.915805
vn 0 0.4016233 0.915805
vn 0 0.4016233 0.915805
g Cube.027_0
f 3/3/3 2/2/2 1/1/1
f 6/6/6 5/5/5 4/4/4
f 9/9/9 8/8/8 7/7/7
f 10/10/10 9/9/9 7/7/7
f 13/13/13 12/12/12 11/11/11
f 14/14/14 13/13/13 11/11/11
f 17/17/17 16/16/16 15/15/15
f 18/18/18 17/17/17 15/15/15
