g Cube.007
v -0.007000013 0.06283584 0.0007435656
v 0.006999987 0.06283584 0.0007435656
v 0.007 0.06926513 0.01000005
v -0.007 0.06926513 0.01000005
v -0.007 0.06213043 0.01000005
v 0.007 0.06213043 0.01000005
v 0.00699996 0.05869738 0.004303987
v -0.00700004 0.05869738 0.004303987
v -0.007 0.06926513 0.01000005
v 0.007 0.06926513 0.01000005
v 0.007 0.06213043 0.01000005
v -0.007 0.06213043 0.01000005
v -0.007 0.06213043 0.01000005
v -0.00700004 0.05869738 0.004303987
v -0.007000013 0.06283584 0.0007435656
v -0.007 0.06926513 0.01000005
v -0.00700004 0.05869738 0.004303987
v 0.00699996 0.05869738 0.004303987
v 0.006999987 0.06283584 0.0007435656
v -0.007000013 0.06283584 0.0007435656
v 0.007 0.06213043 0.01000005
v 0.007 0.06926513 0.01000005
v 0.006999987 0.06283584 0.0007435656
v 0.00699996 0.05869738 0.004303987
vn 0 0.8213213 -0.5704659
vn 0 0.8213213 -0.5704659
vn 0 0.8213213 -0.5704659
vn 0 0.8213213 -0.5704659
vn 0 -0.8564689 0.5161986
vn 0 -0.8564689 0.5161986
vn 0 -0.8564689 0.5161986
vn 0 -0.8564689 0.5161986
vn 0 0 1
vn 0 0 1
vn 0 0 1
vn 0 0 1
vn -1 2.897171E-06 1.637357E-06
vn -1 2.897171E-06 1.637357E-06
vn -1 2.897171E-06 1.637357E-06
vn -1 2.897171E-06 1.637357E-06
vn 0 -0.6521801 -0.758064
vn 0 -0.6521801 -0.758064
vn 0 -0.6521801 -0.758064
vn 0 -0.6521801 -0.758064
vn 1 -2.926435E-06 -1.637357E-06
vn 1 -2.926435E-06 -1.637357E-06
vn 1 -2.926435E-06 -1.637357E-06
vn 1 -2.926435E-06 -1.637357E-06
g Cube.007_0
f 3/3/3 2/2/2 1/1/1
f 4/4/4 3/3/3 1/1/1
f 7/7/7 6/6/6 5/5/5
f 8/8/8 7/7/7 5/5/5
f 11/11/11 10/10/10 9/9/9
f 12/12/12 11/11/11 9/9/9
f 15/15/15 14/14/14 13/13/13
f 16/16/16 15/15/15 13/13/13
f 19/19/19 18/18/18 17/17/17
f 20/20/20 19/19/19 17/17/17
f 23/23/23 22/22/22 21/21/21
f 24/24/24 23/23/23 21/21/21
