g Cube.025
v 0.007 0.008680383 0.01
v 0.007 0.03725993 0.01
v 0.007 0.01753603 -0.003568741
v 0.007 0.01069303 0.004660552
v -0.007 0.008680383 0.01
v -0.007 0.01069303 0.004660552
v -0.007 0.01753603 -0.003568741
v -0.007 0.03725993 0.01
v 0.007 0.01753603 -0.003568741
v 0.007 0.03725993 0.01
v -0.007 0.03725993 0.01
v -0.007 0.01753603 -0.003568741
v 0.007 0.01069303 0.004660552
v 0.007 0.01753603 -0.003568741
v -0.007 0.01753603 -0.003568741
v -0.007 0.01069303 0.004660552
v 0.007 0.008680383 0.01
v 0.007 0.01069303 0.004660552
v -0.007 0.01069303 0.004660552
v -0.007 0.008680383 0.01
v 0.007 0.03725993 0.01
v 0.007 0.008680383 0.01
v -0.007 0.008680383 0.01
v -0.007 0.03725993 0.01
vn 1 0 0
vn 1 0 0
vn 1 0 0
vn 1 0 0
vn -1 0 0
vn -1 0 0
vn -1 0 0
vn -1 0 0
vn 0 0.5667716 -0.823875
vn 0 0.5667716 -0.823875
vn 0 0.5667716 -0.823875
vn 0 0.5667716 -0.823875
vn 0 -0.7688983 -0.6393713
vn 0 -0.7688983 -0.6393713
vn 0 -0.7688983 -0.6393713
vn 0 -0.7688983 -0.6393713
vn 0 -0.9357315 -0.3527132
vn 0 -0.9357315 -0.3527132
vn 0 -0.9357315 -0.3527132
vn 0 -0.9357315 -0.3527132
vn 0 0 1
vn 0 0 1
vn 0 0 1
vn 0 0 1
g Cube.025_0
f 3/3/3 2/2/2 1/1/1
f 4/4/4 3/3/3 1/1/1
f 7/7/7 6/6/6 5/5/5
f 8/8/8 7/7/7 5/5/5
f 11/11/11 10/10/10 9/9/9
f 12/12/12 11/11/11 9/9/9
f 15/15/15 14/14/14 13/13/13
f 16/16/16 15/15/15 13/13/13
f 19/19/19 18/18/18 17/17/17
f 20/20/20 19/19/19 17/17/17
f 23/23/23 22/22/22 21/21/21
f 24/24/24 23/23/23 21/21/21
