g Cube.004
v -0.007 -0.001953268 -0.01562616
v 0.007 -0.001953268 -0.01562616
v 0.007 -0.01 -0.01381238
v -0.007 -0.01 -0.01381238
v -0.007 0.0004257417 -0.02212011
v 0.007 0.0004257417 -0.02212011
v 0.007 -0.001953268 -0.01562616
v -0.007 -0.001953268 -0.01562616
v -0.007 -0.01 -0.01381238
v 0.007 -0.01 -0.01381238
v 0.007 -0.01 -0.02979114
v -0.007 -0.01 -0.02979114
v 0.007 0.0004257417 -0.02212011
v -0.007 0.0004257417 -0.02212011
v -0.007 -0.01 -0.02979114
v 0.007 -0.01 -0.02979114
v 0.007 -0.01 -0.02979114
v 0.007 -0.01 -0.01381238
v 0.007 -0.001953268 -0.01562616
v 0.007 0.0004257417 -0.02212011
v -0.007 0.0004257417 -0.02212011
v -0.007 -0.001953268 -0.01562616
v -0.007 -0.01 -0.01381238
v -0.007 -0.01 -0.02979114
vn 0 0.2198892 0.9755248
vn 0 0.2198892 0.9755248
vn 0 0.2198892 0.9755248
vn 0 0.2198892 0.9755248
vn 0 0.9389746 0.3439865
vn 0 0.9389746 0.3439865
vn 0 0.9389746 0.3439865
vn 0 0.9389746 0.3439865
vn 0 -1 0
vn 0 -1 0
vn 0 -1 0
vn 0 -1 0
vn 0 0.5926432 -0.8054652
vn 0 0.5926432 -0.8054652
vn 0 0.5926432 -0.8054652
vn 0 0.5926432 -0.8054652
vn 1 0 0
vn 1 0 0
vn 1 0 0
vn 1 0 0
vn -1 0 0
vn -1 0 0
vn -1 0 0
vn -1 0 0
g Cube.004_0
f 3/3/3 2/2/2 1/1/1
f 4/4/4 3/3/3 1/1/1
f 7/7/7 6/6/6 5/5/5
f 8/8/8 7/7/7 5/5/5
f 11/11/11 10/10/10 9/9/9
f 12/12/12 11/11/11 9/9/9
f 15/15/15 14/14/14 13/13/13
f 16/16/16 15/15/15 13/13/13
f 19/19/19 18/18/18 17/17/17
f 20/20/20 19/19/19 17/17/17
f 23/23/23 22/22/22 21/21/21
f 24/24/24 23/23/23 21/21/21
