g Cube.024
v -0.006999999 -0.09476952 0.01
v 0.007 -0.09476952 0.01
v 0.006999987 -0.09794921 -0.003314876
v -0.007000013 -0.09794921 -0.003314876
v -0.006999999 -0.09506321 -0.01
v 0.007 -0.09506321 -0.01
v 0.007 -0.08349866 -0.01
v -0.006999999 -0.08349866 -0.01
v -0.007000013 -0.09794921 -0.003314876
v 0.006999987 -0.09794921 -0.003314876
v 0.007 -0.09506321 -0.01
v -0.006999999 -0.09506321 -0.01
v -0.006999999 -0.08349866 -0.01
v -0.006999999 -0.09476952 0.01
v -0.007000013 -0.09794921 -0.003314876
v -0.006999999 -0.09506321 -0.01
v -0.006999999 -0.08349866 -0.01
v 0.007 -0.08349866 -0.01
v 0.007 -0.09476952 0.01
v -0.006999999 -0.09476952 0.01
v 0.007 -0.08349866 -0.01
v 0.007 -0.09506321 -0.01
v 0.006999987 -0.09794921 -0.003314876
v 0.007 -0.09476952 0.01
vn 0 -0.9726499 0.2322761
vn 0 -0.9726499 0.2322761
vn 0 -0.9726499 0.2322761
vn 0 -0.9726499 0.2322761
vn 0 0 -1
vn 0 0 -1
vn 0 0 -1
vn 0 0 -1
vn 0 -0.9181005 -0.3963477
vn 0 -0.9181005 -0.3963477
vn 0 -0.9181005 -0.3963477
vn 0 -0.9181005 -0.3963477
vn -1 9.832567E-07 0
vn -1 9.832567E-07 0
vn -1 9.832567E-07 0
vn -1 9.832567E-07 0
vn 0 0.8711873 0.4909508
vn 0 0.8711873 0.4909508
vn 0 0.8711873 0.4909508
vn 0 0.8711873 0.4909508
vn 1 -1.003741E-06 0
vn 1 -1.003741E-06 0
vn 1 -1.003741E-06 0
vn 1 -1.003741E-06 0
g Cube.024_0
f 3/3/3 2/2/2 1/1/1
f 4/4/4 3/3/3 1/1/1
f 7/7/7 6/6/6 5/5/5
f 8/8/8 7/7/7 5/5/5
f 11/11/11 10/10/10 9/9/9
f 12/12/12 11/11/11 9/9/9
f 15/15/15 14/14/14 13/13/13
f 16/16/16 15/15/15 13/13/13
f 19/19/19 18/18/18 17/17/17
f 20/20/20 19/19/19 17/17/17
f 23/23/23 22/22/22 21/21/21
f 24/24/24 23/23/23 21/21/21
