g Cube.021
v 0.007 -0.1177522 -0.01
v 0.007 -0.1494818 -0.01
v 0.007 -0.1494818 -0.001511419
v 0.007 -0.1366325 0.003117547
v 0.007 -0.123349 -0.003054417
v -0.007 -0.1366325 0.003117547
v -0.007 -0.1494818 -0.001511419
v -0.007 -0.1494818 -0.01
v -0.007 -0.1177522 -0.01
v -0.007 -0.123349 -0.003054417
v 0.007 -0.1494818 -0.01
v 0.007 -0.1177522 -0.01
v -0.007 -0.1177522 -0.01
v -0.007 -0.1494818 -0.01
v 0.007 -0.1494818 -0.001511419
v 0.007 -0.1494818 -0.01
v -0.007 -0.1494818 -0.01
v -0.007 -0.1494818 -0.001511419
v 0.007 -0.1366325 0.003117547
v 0.007 -0.1494818 -0.001511419
v -0.007 -0.1494818 -0.001511419
v -0.007 -0.1366325 0.003117547
v 0.007 -0.123349 -0.003054417
v 0.007 -0.1366325 0.003117547
v -0.007 -0.1366325 0.003117547
v -0.007 -0.123349 -0.003054417
v 0.007 -0.1177522 -0.01
v 0.007 -0.123349 -0.003054417
v -0.007 -0.123349 -0.003054417
v -0.007 -0.1177522 -0.01
vn 1 0 0
vn 1 0 0
vn 1 0 0
vn 1 0 0
vn 1 0 0
vn -1 0 0
vn -1 0 0
vn -1 0 0
vn -1 0 0
vn -1 0 0
vn 0 0 -1
vn 0 0 -1
vn 0 0 -1
vn 0 0 -1
vn 0 -1 0
vn 0 -1 0
vn 0 -1 0
vn 0 -1 0
vn 0 -0.338927 0.9408127
vn 0 -0.338927 0.9408127
vn 0 -0.338927 0.9408127
vn 0 -0.338927 0.9408127
vn 0 0.4213725 0.9068877
vn 0 0.4213725 0.9068877
vn 0 0.4213725 0.9068877
vn 0 0.4213725 0.9068877
vn 0 0.7786589 0.6274474
vn 0 0.7786589 0.6274474
vn 0 0.7786589 0.6274474
vn 0 0.7786589 0.6274474
g Cube.021_0
f 3/3/3 2/2/2 1/1/1
f 1/1/1 4/4/4 3/3/3
f 1/1/1 5/5/5 4/4/4
f 8/8/8 7/7/7 6/6/6
f 6/6/6 9/9/9 8/8/8
f 6/6/6 10/10/10 9/9/9
f 13/13/13 12/12/12 11/11/11
f 14/14/14 13/13/13 11/11/11
f 17/17/17 16/16/16 15/15/15
f 18/18/18 17/17/17 15/15/15
f 21/21/21 20/20/20 19/19/19
f 22/22/22 21/21/21 19/19/19
f 25/25/25 24/24/24 23/23/23
f 26/26/26 25/25/25 23/23/23
f 29/29/29 28/28/28 27/27/27
f 30/30/30 29/29/29 27/27/27
