g Leaf
v -0.01465939 0.003326856 0.000151607
v -0.02054095 0.001200446 0.001415445
v -0.02054096 -0.001200442 0.001415445
v -0.01465941 -0.003326851 0.000151607
v -0.0146594 0.003326854 0.001112231
v -0.01465941 -0.003326851 0.001112231
v -0.02054097 -0.001200442 0.002376068
v -0.02054096 0.001200446 0.002376068
v 0.02030399 0.002008415 -0.00163883
v 0.02030399 -0.002008419 -0.00163883
v 0.02030398 -0.00200842 -0.0006782061
v 0.020304 0.002008414 -0.0006782061
v -0.01465941 -0.003326851 0.000151607
v -0.02054096 -0.001200442 0.001415445
v -0.02054097 -0.001200442 0.002376068
v -0.01465941 -0.003326851 0.001112231
v -0.02054096 -0.001200442 0.001415445
v -0.02054095 0.001200446 0.001415445
v -0.02054096 0.001200446 0.002376068
v -0.02054097 -0.001200442 0.002376068
v -0.0146594 0.003326854 0.001112231
v -0.02054096 0.001200446 0.002376068
v -0.02054095 0.001200446 0.001415445
v -0.01465939 0.003326856 0.000151607
v 0.01369398 0.008628455 0.0004803118
v 0.007417477 0.009999997 0.00121755
v 0.007417472 0.01 0.0002569269
v 0.01369397 0.008628459 -0.0004803118
v -0.009053655 0.006066923 -0.0005473557
v -0.01465939 0.003326856 0.000151607
v -0.01465941 -0.003326851 0.000151607
v -0.009053663 -0.006066921 -0.0005473557
v 0.01369397 -0.008628459 -0.0004803118
v 0.007417467 -0.009999999 0.0002569269
v 0.007417459 -0.01 0.00121755
v 0.01369396 -0.008628462 0.0004803118
v -0.009053663 -0.006066921 -0.0005473557
v -0.01465941 -0.003326851 0.000151607
v -0.01465941 -0.003326851 0.001112231
v -0.009053668 -0.006066921 0.0004132679
v -0.004233522 -0.008430221 -0.0004803118
v -0.004233528 -0.008430221 0.0004803118
v 0.01369398 0.008628455 0.0004803118
v 0.01369396 -0.008628462 0.0004803118
v 0.007417459 -0.01 0.00121755
v 0.007417477 0.009999997 0.00121755
v 0.01799605 0.006046361 -0.000151607
v 0.01799603 -0.006046368 -0.000151607
v -0.009053658 0.006066922 0.0004132679
v -0.009053668 -0.006066921 0.0004132679
v -0.01465941 -0.003326851 0.001112231
v -0.0146594 0.003326854 0.001112231
v 0.01369397 0.008628459 -0.0004803118
v 0.007417472 0.01 0.0002569269
v 0.007417467 -0.009999999 0.0002569269
v 0.01369397 -0.008628459 -0.0004803118
v 0.01799605 0.006046364 -0.001112231
v 0.01799604 -0.006046365 -0.001112231
v 0.001053204 0.009812024 0.00121755
v -0.004233514 0.008430221 0.0004803118
v -0.004233512 0.008430223 -0.0004803118
v 0.001053203 0.009812029 0.0002569269
v 0.001053196 -0.009812025 0.0002569269
v -0.004233522 -0.008430221 -0.0004803118
v -0.004233528 -0.008430221 0.0004803118
v 0.001053189 -0.009812027 0.00121755
v 0.001053204 0.009812024 0.00121755
v 0.001053189 -0.009812027 0.00121755
v -0.004233528 -0.008430221 0.0004803118
v -0.004233514 0.008430221 0.0004803118
v -0.009053658 0.006066922 0.0004132679
v -0.0146594 0.003326854 0.001112231
v -0.01465939 0.003326856 0.000151607
v -0.009053655 0.006066923 -0.0005473557
v -0.004233514 0.008430221 0.0004803118
v -0.004233512 0.008430223 -0.0004803118
v 0.01799604 -0.006046365 -0.001112231
v 0.01369397 -0.008628459 -0.0004803118
v 0.01369396 -0.008628462 0.0004803118
v 0.01799603 -0.006046368 -0.000151607
v 0.01799605 0.006046361 -0.000151607
v 0.01369398 0.008628455 0.0004803118
v 0.01369397 0.008628459 -0.0004803118
v 0.01799605 0.006046364 -0.001112231
v 0.007417472 0.01 0.0002569269
v 0.001053203 0.009812029 0.0002569269
v 0.001053196 -0.009812025 0.0002569269
v 0.007417467 -0.009999999 0.0002569269
v 0.007417477 0.009999997 0.00121755
v 0.007417459 -0.01 0.00121755
v 0.001053189 -0.009812027 0.00121755
v 0.001053204 0.009812024 0.00121755
v 0.007417467 -0.009999999 0.0002569269
v 0.001053196 -0.009812025 0.0002569269
v 0.001053189 -0.009812027 0.00121755
v 0.007417459 -0.01 0.00121755
v 0.007417477 0.009999997 0.00121755
v 0.001053204 0.009812024 0.00121755
v 0.001053203 0.009812029 0.0002569269
v 0.007417472 0.01 0.0002569269
v 0.020304 0.002008414 -0.0006782061
v 0.01799605 0.006046361 -0.000151607
v 0.01799605 0.006046364 -0.001112231
v 0.02030399 0.002008415 -0.00163883
v 0.02030399 -0.002008419 -0.00163883
v 0.01799604 -0.006046365 -0.001112231
v 0.01799603 -0.006046368 -0.000151607
v 0.02030398 -0.00200842 -0.0006782061
v 0.020304 0.002008414 -0.0006782061
v 0.02030398 -0.00200842 -0.0006782061
v 0.01799603 -0.006046368 -0.000151607
v 0.01799605 0.006046361 -0.000151607
v 0.02030399 0.002008415 -0.00163883
v 0.01799605 0.006046364 -0.001112231
v 0.01799604 -0.006046365 -0.001112231
v 0.02030399 -0.002008419 -0.00163883
v -0.009053658 0.006066922 0.0004132679
v -0.004233514 0.008430221 0.0004803118
v -0.004233528 -0.008430221 0.0004803118
v -0.009053668 -0.006066921 0.0004132679
v -0.009053663 -0.006066921 -0.0005473557
v -0.004233522 -0.008430221 -0.0004803118
v -0.004233512 0.008430223 -0.0004803118
v -0.009053655 0.006066923 -0.0005473557
v 0.001053203 0.009812029 0.0002569269
v -0.004233512 0.008430223 -0.0004803118
v -0.004233522 -0.008430221 -0.0004803118
v 0.001053196 -0.009812025 0.0002569269
vn -0.210086 5.471256E-07 -0.9776829
vn -0.210086 5.471256E-07 -0.9776829
vn -0.210086 5.471256E-07 -0.9776829
vn -0.210086 5.471256E-07 -0.9776829
vn 0.2100859 -4.924129E-07 0.9776829
vn 0.2100859 -4.924129E-07 0.9776829
vn 0.2100859 -4.924129E-07 0.9776829
vn 0.2100859 -4.924129E-07 0.9776829
vn 1 -3.089392E-06 1.240954E-06
vn 1 -3.089392E-06 1.240954E-06
vn 1 -3.089392E-06 1.240954E-06
vn 1 -3.089392E-06 1.240954E-06
vn -0.3400004 -0.9404252 -1.775525E-06
vn -0.3400004 -0.9404252 -1.775525E-06
vn -0.3400004 -0.9404252 -1.775525E-06
vn -0.3400004 -0.9404252 -1.775525E-06
vn -1 4.522651E-06 -6.204786E-06
vn -1 4.522651E-06 -6.204786E-06
vn -1 4.522651E-06 -6.204786E-06
vn -1 4.522651E-06 -6.204786E-06
vn -0.3400003 0.9404253 -1.299133E-06
vn -0.3400003 0.9404253 -1.299133E-06
vn -0.3400003 0.9404253 -1.299133E-06
vn -0.3400003 0.9404253 -1.299133E-06
vn 0.2134828 0.9769469 2.897351E-06
vn 0.2134828 0.9769469 2.897351E-06
vn 0.2134828 0.9769469 2.897351E-06
vn 0.2134828 0.9769469 2.897351E-06
vn -0.1237288 1.403999E-07 -0.992316
vn -0.1237288 1.403999E-07 -0.992316
vn -0.1237288 1.403999E-07 -0.992316
vn -0.1237288 1.403999E-07 -0.992316
vn 0.2134821 -0.976947 -9.657832E-07
vn 0.2134821 -0.976947 -9.657832E-07
vn 0.2134821 -0.976947 -9.657832E-07
vn 0.2134821 -0.976947 -9.657832E-07
vn -0.4391437 -0.8984169 -2.325481E-06
vn -0.4391437 -0.8984169 -2.325481E-06
vn -0.4391437 -0.8984169 -2.325481E-06
vn -0.4391437 -0.8984169 -2.325481E-06
vn -0.4402303 -0.897885 -2.049538E-06
vn -0.4402303 -0.897885 -2.049538E-06
vn 0.1166581 -1.075893E-07 0.9931722
vn 0.1166581 -1.075893E-07 0.9931722
vn 0.1166581 -1.075893E-07 0.9931722
vn 0.1166581 -1.075893E-07 0.9931722
vn 0.1453276 -1.984966E-07 0.9893835
vn 0.1453276 -1.984966E-07 0.9893835
vn 0.1237288 -1.684799E-07 0.992316
vn 0.1237288 -1.684799E-07 0.992316
vn 0.1237288 -1.684799E-07 0.992316
vn 0.1237288 -1.684799E-07 0.992316
vn -0.1166581 0 -0.9931722
vn -0.1166581 0 -0.9931722
vn -0.1166581 0 -0.9931722
vn -0.1166581 0 -0.9931722
vn -0.1453276 0 -0.9893835
vn -0.1453276 0 -0.9893835
vn -0.2528782 0.9674981 3.261285E-06
vn -0.2528782 0.9674981 3.261285E-06
vn -0.2528782 0.9674981 3.261285E-06
vn -0.2528782 0.9674981 3.261285E-06
vn -0.2528776 -0.9674983 -3.664011E-06
vn -0.2528776 -0.9674983 -3.664011E-06
vn -0.2528776 -0.9674983 -3.664011E-06
vn -0.2528776 -0.9674983 -3.664011E-06
vn -0.1381147 1.128588E-07 0.9904163
vn -0.1381147 1.128588E-07 0.9904163
vn -0.1381147 1.128588E-07 0.9904163
vn -0.1381147 1.128588E-07 0.9904163
vn -0.4391433 0.8984171 -3.366285E-07
vn -0.4391433 0.8984171 -3.366285E-07
vn -0.4391433 0.8984171 -3.366285E-07
vn -0.4391433 0.8984171 -3.366285E-07
vn -0.4402299 0.8978851 7.257478E-07
vn -0.4402299 0.8978851 7.257478E-07
vn 0.5146205 -0.8574181 2.851113E-06
vn 0.5146205 -0.8574181 2.851113E-06
vn 0.5146205 -0.8574181 2.851113E-06
vn 0.5146205 -0.8574181 2.851113E-06
vn 0.5146204 0.8574182 -1.05627E-06
vn 0.5146204 0.8574182 -1.05627E-06
vn 0.5146204 0.8574182 -1.05627E-06
vn 0.5146204 0.8574182 -1.05627E-06
vn 0 0 -1
vn 0 0 -1
vn 0 0 -1
vn 0 0 -1
vn 0 0 1
vn 0 0 1
vn 0 0 1
vn 0 0 1
vn -0.029523 -0.9995641 -3.143366E-06
vn -0.029523 -0.9995641 -3.143366E-06
vn -0.029523 -0.9995641 -3.143366E-06
vn -0.029523 -0.9995641 -3.143366E-06
vn -0.02952267 0.9995641 4.909215E-06
vn -0.02952267 0.9995641 4.909215E-06
vn -0.02952267 0.9995641 4.909215E-06
vn -0.02952267 0.9995641 4.909215E-06
vn 0.8681923 0.4962281 -6.957103E-06
vn 0.8681923 0.4962281 -6.957103E-06
vn 0.8681923 0.4962281 -6.957103E-06
vn 0.8681923 0.4962281 -6.957103E-06
vn 0.8681932 -0.4962263 9.183103E-06
vn 0.8681932 -0.4962263 9.183103E-06
vn 0.8681932 -0.4962263 9.183103E-06
vn 0.8681932 -0.4962263 9.183103E-06
vn 0.222451 -5.861136E-07 0.9749439
vn 0.222451 -5.861136E-07 0.9749439
vn 0.222451 -5.861136E-07 0.9749439
vn 0.222451 -5.861136E-07 0.9749439
vn -0.2224511 0 -0.9749439
vn -0.2224511 0 -0.9749439
vn -0.2224511 0 -0.9749439
vn -0.2224511 0 -0.9749439
vn -0.01390775 0 0.9999033
vn -0.01390775 0 0.9999033
vn -0.01390775 0 0.9999033
vn -0.01390775 0 0.9999033
vn 0.01390775 0 -0.9999033
vn 0.01390775 0 -0.9999033
vn 0.01390775 0 -0.9999033
vn 0.01390775 0 -0.9999033
vn 0.1381147 0 -0.9904163
vn 0.1381147 0 -0.9904163
vn 0.1381147 0 -0.9904163
vn 0.1381147 0 -0.9904163
g Leaf_0
f 3/3/3 2/2/2 1/1/1
f 4/4/4 3/3/3 1/1/1
f 7/7/7 6/6/6 5/5/5
f 8/8/8 7/7/7 5/5/5
f 11/11/11 10/10/10 9/9/9
f 12/12/12 11/11/11 9/9/9
f 15/15/15 14/14/14 13/13/13
f 16/16/16 15/15/15 13/13/13
f 19/19/19 18/18/18 17/17/17
f 20/20/20 19/19/19 17/17/17
f 23/23/23 22/22/22 21/21/21
f 24/24/24 23/23/23 21/21/21
f 27/27/27 26/26/26 25/25/25
f 28/28/28 27/27/27 25/25/25
f 31/31/31 30/30/30 29/29/29
f 32/32/32 31/31/31 29/29/29
f 35/35/35 34/34/34 33/33/33
f 36/36/36 35/35/35 33/33/33
f 39/39/39 38/38/38 37/37/37
f 40/40/40 39/39/39 37/37/37
f 37/37/37 41/41/41 40/40/40
f 41/41/41 42/42/42 40/40/40
f 45/45/45 44/44/44 43/43/43
f 46/46/46 45/45/45 43/43/43
f 43/43/43 44/44/44 47/47/47
f 44/44/44 48/48/48 47/47/47
f 51/51/51 50/50/50 49/49/49
f 52/52/52 51/51/51 49/49/49
f 55/55/55 54/54/54 53/53/53
f 56/56/56 55/55/55 53/53/53
f 56/56/56 53/53/53 57/57/57
f 58/58/58 56/56/56 57/57/57
f 61/61/61 60/60/60 59/59/59
f 62/62/62 61/61/61 59/59/59
f 65/65/65 64/64/64 63/63/63
f 66/66/66 65/65/65 63/63/63
f 69/69/69 68/68/68 67/67/67
f 70/70/70 69/69/69 67/67/67
f 73/73/73 72/72/72 71/71/71
f 74/74/74 73/73/73 71/71/71
f 71/71/71 75/75/75 74/74/74
f 75/75/75 76/76/76 74/74/74
f 79/79/79 78/78/78 77/77/77
f 80/80/80 79/79/79 77/77/77
f 83/83/83 82/82/82 81/81/81
f 84/84/84 83/83/83 81/81/81
f 87/87/87 86/86/86 85/85/85
f 88/88/88 87/87/87 85/85/85
f 91/91/91 90/90/90 89/89/89
f 92/92/92 91/91/91 89/89/89
f 95/95/95 94/94/94 93/93/93
f 96/96/96 95/95/95 93/93/93
f 99/99/99 98/98/98 97/97/97
f 100/100/100 99/99/99 97/97/97
f 103/103/103 102/102/102 101/101/101
f 104/104/104 103/103/103 101/101/101
f 107/107/107 106/106/106 105/105/105
f 108/108/108 107/107/107 105/105/105
f 111/111/111 110/110/110 109/109/109
f 112/112/112 111/111/111 109/109/109
f 115/115/115 114/114/114 113/113/113
f 116/116/116 115/115/115 113/113/113
f 119/119/119 118/118/118 117/117/117
f 120/120/120 119/119/119 117/117/117
f 123/123/123 122/122/122 121/121/121
f 124/124/124 123/123/123 121/121/121
f 127/127/127 126/126/126 125/125/125
f 128/128/128 127/127/127 125/125/125
